{
  "header": {
    "keySignatures": [
      {
        "key": "C",
        "scale": "major",
        "ticks": 0
      },
      {
        "key": "C",
        "scale": "major",
        "ticks": 0
      }
    ],
    "meta": [],
    "name": "",
    "ppq": 480,
    "tempos": [
      {
        "bpm": 127.20003052800733,
        "ticks": 0
      }
    ],
    "timeSignatures": [
      {
        "ticks": 0,
        "timeSignature": [
          1,
          4
        ],
        "measures": 0
      },
      {
        "ticks": 480,
        "timeSignature": [
          4,
          4
        ],
        "measures": 1
      },
      {
        "ticks": 65760,
        "timeSignature": [
          3,
          4
        ],
        "measures": 35
      }
    ]
  },
  "tracks": [
    {
      "channel": 0,
      "controlChanges": {
        "7": [
          {
            "number": 7,
            "ticks": 2,
            "time": 0.0019654083333333332,
            "value": 0.7874015748031497
          }
        ],
        "10": [
          {
            "number": 10,
            "ticks": 4,
            "time": 0.0039308166666666665,
            "value": 0.5039370078740157
          }
        ],
        "91": [
          {
            "number": 91,
            "ticks": 6,
            "time": 0.005896225000000001,
            "value": 0.23622047244094488
          }
        ],
        "93": [
          {
            "number": 93,
            "ticks": 8,
            "time": 0.007861633333333333,
            "value": 0.23622047244094488
          }
        ]
      },
      "pitchBends": [],
      "instrument": {
        "family": "piano",
        "number": 0,
        "name": "acoustic grand piano"
      },
      "name": "",
      "notes": [
        {
          "duration": 0.11694179583333333,
          "durationTicks": 119,
          "midi": 76,
          "name": "E5",
          "ticks": 240,
          "time": 0.235849,
          "velocity": 0.6299212598425197
        },
        {
          "duration": 0.1169417958333333,
          "durationTicks": 119,
          "midi": 78,
          "name": "F#5",
          "ticks": 360,
          "time": 0.3537735,
          "velocity": 0.6299212598425197
        },
        {
          "duration": 0.23486629583333324,
          "durationTicks": 239,
          "midi": 79,
          "name": "G5",
          "ticks": 480,
          "time": 0.471698,
          "velocity": 0.6299212598425197
        },
        {
          "duration": 0.2348662958333333,
          "durationTicks": 239,
          "midi": 76,
          "name": "E5",
          "ticks": 720,
          "time": 0.707547,
          "velocity": 0.6299212598425197
        },
        {
          "duration": 0.2348662958333333,
          "durationTicks": 239,
          "midi": 83,
          "name": "B5",
          "ticks": 960,
          "time": 0.943396,
          "velocity": 0.6299212598425197
        },
        {
          "duration": 0.11694179583333342,
          "durationTicks": 119,
          "midi": 76,
          "name": "E5",
          "ticks": 1200,
          "time": 1.179245,
          "velocity": 0.6299212598425197
        },
        {
          "duration": 0.11694179583333342,
          "durationTicks": 119,
          "midi": 78,
          "name": "F#5",
          "ticks": 1320,
          "time": 1.2971695,
          "velocity": 0.6299212598425197
        },
        {
          "duration": 0.2348662958333334,
          "durationTicks": 239,
          "midi": 79,
          "name": "G5",
          "ticks": 1440,
          "time": 1.415094,
          "velocity": 0.6299212598425197
        },
        {
          "duration": 0.2348662958333334,
          "durationTicks": 239,
          "midi": 83,
          "name": "B5",
          "ticks": 1680,
          "time": 1.650943,
          "velocity": 0.6299212598425197
        },
        {
          "duration": 0.2348662958333334,
          "durationTicks": 239,
          "midi": 95,
          "name": "B6",
          "ticks": 1920,
          "time": 1.886792,
          "velocity": 0.6299212598425197
        },
        {
          "duration": 0.2348662958333334,
          "durationTicks": 239,
          "midi": 83,
          "name": "B5",
          "ticks": 1920,
          "time": 1.886792,
          "velocity": 0.6299212598425197
        },
        {
          "duration": 0.1169417958333332,
          "durationTicks": 119,
          "midi": 83,
          "name": "B5",
          "ticks": 2400,
          "time": 2.35849,
          "velocity": 0.6299212598425197
        },
        {
          "duration": 0.1169417958333332,
          "durationTicks": 119,
          "midi": 84,
          "name": "C6",
          "ticks": 2520,
          "time": 2.4764145,
          "velocity": 0.6299212598425197
        },
        {
          "duration": 0.1169417958333332,
          "durationTicks": 119,
          "midi": 83,
          "name": "B5",
          "ticks": 2640,
          "time": 2.594339,
          "velocity": 0.6299212598425197
        },
        {
          "duration": 0.1169417958333332,
          "durationTicks": 119,
          "midi": 81,
          "name": "A5",
          "ticks": 2760,
          "time": 2.7122635,
          "velocity": 0.6299212598425197
        },
        {
          "duration": 0.23486629583333318,
          "durationTicks": 239,
          "midi": 79,
          "name": "G5",
          "ticks": 2880,
          "time": 2.830188,
          "velocity": 0.6299212598425197
        },
        {
          "duration": 0.1169417958333332,
          "durationTicks": 119,
          "midi": 79,
          "name": "G5",
          "ticks": 3120,
          "time": 3.066037,
          "velocity": 0.6299212598425197
        },
        {
          "duration": 0.1169417958333332,
          "durationTicks": 119,
          "midi": 78,
          "name": "F#5",
          "ticks": 3240,
          "time": 3.1839615,
          "velocity": 0.6299212598425197
        },
        {
          "duration": 0.23486629583333318,
          "durationTicks": 239,
          "midi": 76,
          "name": "E5",
          "ticks": 3360,
          "time": 3.301886,
          "velocity": 0.6299212598425197
        },
        {
          "duration": 0.1169417958333332,
          "durationTicks": 119,
          "midi": 76,
          "name": "E5",
          "ticks": 4080,
          "time": 4.0094330000000005,
          "velocity": 0.6299212598425197
        },
        {
          "duration": 0.1169417958333332,
          "durationTicks": 119,
          "midi": 78,
          "name": "F#5",
          "ticks": 4200,
          "time": 4.1273575000000005,
          "velocity": 0.6299212598425197
        },
        {
          "duration": 0.23486629583333318,
          "durationTicks": 239,
          "midi": 79,
          "name": "G5",
          "ticks": 4320,
          "time": 4.2452820000000004,
          "velocity": 0.6299212598425197
        },
        {
          "duration": 0.23486629583333318,
          "durationTicks": 239,
          "midi": 76,
          "name": "E5",
          "ticks": 4560,
          "time": 4.481131,
          "velocity": 0.6299212598425197
        },
        {
          "duration": 0.1169417958333332,
          "durationTicks": 119,
          "midi": 79,
          "name": "G5",
          "ticks": 5040,
          "time": 4.952829,
          "velocity": 0.6299212598425197
        },
        {
          "duration": 0.1169417958333332,
          "durationTicks": 119,
          "midi": 81,
          "name": "A5",
          "ticks": 5160,
          "time": 5.0707535,
          "velocity": 0.6299212598425197
        },
        {
          "duration": 0.23486629583333318,
          "durationTicks": 239,
          "midi": 83,
          "name": "B5",
          "ticks": 5280,
          "time": 5.188678,
          "velocity": 0.6299212598425197
        },
        {
          "duration": 0.23486629583333318,
          "durationTicks": 239,
          "midi": 76,
          "name": "E5",
          "ticks": 5520,
          "time": 5.424527,
          "velocity": 0.6299212598425197
        },
        {
          "duration": 0.1169417958333332,
          "durationTicks": 119,
          "midi": 83,
          "name": "B5",
          "ticks": 6000,
          "time": 5.896225,
          "velocity": 0.6299212598425197
        },
        {
          "duration": 0.1169417958333332,
          "durationTicks": 119,
          "midi": 85,
          "name": "C#6",
          "ticks": 6120,
          "time": 6.0141495,
          "velocity": 0.6299212598425197
        },
        {
          "duration": 0.1169417958333332,
          "durationTicks": 119,
          "midi": 86,
          "name": "D6",
          "ticks": 6240,
          "time": 6.132074,
          "velocity": 0.6299212598425197
        },
        {
          "duration": 0.1169417958333332,
          "durationTicks": 119,
          "midi": 85,
          "name": "C#6",
          "ticks": 6360,
          "time": 6.2499985,
          "velocity": 0.6299212598425197
        },
        {
          "duration": 0.1169417958333332,
          "durationTicks": 119,
          "midi": 86,
          "name": "D6",
          "ticks": 6480,
          "time": 6.367923,
          "velocity": 0.6299212598425197
        },
        {
          "duration": 0.1169417958333332,
          "durationTicks": 119,
          "midi": 85,
          "name": "C#6",
          "ticks": 6600,
          "time": 6.4858475,
          "velocity": 0.6299212598425197
        },
        {
          "duration": 0.1169417958333332,
          "durationTicks": 119,
          "midi": 86,
          "name": "D6",
          "ticks": 6720,
          "time": 6.603772,
          "velocity": 0.6299212598425197
        },
        {
          "duration": 0.1169417958333332,
          "durationTicks": 119,
          "midi": 88,
          "name": "E6",
          "ticks": 6840,
          "time": 6.7216965,
          "velocity": 0.6299212598425197
        },
        {
          "duration": 0.1169417958333332,
          "durationTicks": 119,
          "midi": 86,
          "name": "D6",
          "ticks": 6960,
          "time": 6.839621,
          "velocity": 0.6299212598425197
        },
        {
          "duration": 0.1169417958333332,
          "durationTicks": 119,
          "midi": 85,
          "name": "C#6",
          "ticks": 7080,
          "time": 6.9575455,
          "velocity": 0.6299212598425197
        },
        {
          "duration": 0.23486629583333318,
          "durationTicks": 239,
          "midi": 83,
          "name": "B5",
          "ticks": 7200,
          "time": 7.07547,
          "velocity": 0.6299212598425197
        },
        {
          "duration": 0.23486629583333318,
          "durationTicks": 239,
          "midi": 82,
          "name": "A#5",
          "ticks": 7440,
          "time": 7.311319,
          "velocity": 0.6299212598425197
        },
        {
          "duration": 0.23486629583333318,
          "durationTicks": 239,
          "midi": 70,
          "name": "A#4",
          "ticks": 7440,
          "time": 7.311319,
          "velocity": 0.6299212598425197
        },
        {
          "duration": 0.2348662958333323,
          "durationTicks": 239,
          "midi": 83,
          "name": "B5",
          "ticks": 7680,
          "time": 7.547168,
          "velocity": 0.6299212598425197
        },
        {
          "duration": 0.2348662958333323,
          "durationTicks": 239,
          "midi": 71,
          "name": "B4",
          "ticks": 7680,
          "time": 7.547168,
          "velocity": 0.6299212598425197
        },
        {
          "duration": 0.11694179583333231,
          "durationTicks": 119,
          "midi": 76,
          "name": "E5",
          "ticks": 7920,
          "time": 7.783017,
          "velocity": 0.6299212598425197
        },
        {
          "duration": 0.11694179583333231,
          "durationTicks": 119,
          "midi": 78,
          "name": "F#5",
          "ticks": 8040,
          "time": 7.9009415,
          "velocity": 0.6299212598425197
        },
        {
          "duration": 0.2348662958333314,
          "durationTicks": 239,
          "midi": 79,
          "name": "G5",
          "ticks": 8160,
          "time": 8.018866000000001,
          "velocity": 0.6299212598425197
        },
        {
          "duration": 0.2348662958333314,
          "durationTicks": 239,
          "midi": 76,
          "name": "E5",
          "ticks": 8400,
          "time": 8.254715000000001,
          "velocity": 0.6299212598425197
        },
        {
          "duration": 0.11694179583333231,
          "durationTicks": 119,
          "midi": 79,
          "name": "G5",
          "ticks": 8880,
          "time": 8.726413,
          "velocity": 0.6299212598425197
        },
        {
          "duration": 0.11694179583333231,
          "durationTicks": 119,
          "midi": 81,
          "name": "A5",
          "ticks": 9000,
          "time": 8.8443375,
          "velocity": 0.6299212598425197
        },
        {
          "duration": 0.2348662958333314,
          "durationTicks": 239,
          "midi": 83,
          "name": "B5",
          "ticks": 9120,
          "time": 8.962262,
          "velocity": 0.6299212598425197
        },
        {
          "duration": 0.2348662958333314,
          "durationTicks": 239,
          "midi": 76,
          "name": "E5",
          "ticks": 9360,
          "time": 9.198111,
          "velocity": 0.6299212598425197
        },
        {
          "duration": 0.11694179583333231,
          "durationTicks": 119,
          "midi": 83,
          "name": "B5",
          "ticks": 9840,
          "time": 9.669809,
          "velocity": 0.6299212598425197
        },
        {
          "duration": 0.11694179583333231,
          "durationTicks": 119,
          "midi": 85,
          "name": "C#6",
          "ticks": 9960,
          "time": 9.7877335,
          "velocity": 0.6299212598425197
        },
        {
          "duration": 0.11694179583333231,
          "durationTicks": 119,
          "midi": 86,
          "name": "D6",
          "ticks": 10080,
          "time": 9.905658,
          "velocity": 0.6299212598425197
        },
        {
          "duration": 0.11694179583333231,
          "durationTicks": 119,
          "midi": 85,
          "name": "C#6",
          "ticks": 10200,
          "time": 10.0235825,
          "velocity": 0.6299212598425197
        },
        {
          "duration": 0.11694179583333231,
          "durationTicks": 119,
          "midi": 86,
          "name": "D6",
          "ticks": 10320,
          "time": 10.141507,
          "velocity": 0.6299212598425197
        },
        {
          "duration": 0.11694179583333231,
          "durationTicks": 119,
          "midi": 85,
          "name": "C#6",
          "ticks": 10440,
          "time": 10.2594315,
          "velocity": 0.6299212598425197
        },
        {
          "duration": 0.11694179583333231,
          "durationTicks": 119,
          "midi": 86,
          "name": "D6",
          "ticks": 10560,
          "time": 10.377356,
          "velocity": 0.6299212598425197
        },
        {
          "duration": 0.11694179583333231,
          "durationTicks": 119,
          "midi": 88,
          "name": "E6",
          "ticks": 10680,
          "time": 10.4952805,
          "velocity": 0.6299212598425197
        },
        {
          "duration": 0.11694179583333231,
          "durationTicks": 119,
          "midi": 86,
          "name": "D6",
          "ticks": 10800,
          "time": 10.613205,
          "velocity": 0.6299212598425197
        },
        {
          "duration": 0.11694179583333231,
          "durationTicks": 119,
          "midi": 85,
          "name": "C#6",
          "ticks": 10920,
          "time": 10.7311295,
          "velocity": 0.6299212598425197
        },
        {
          "duration": 0.2348662958333314,
          "durationTicks": 239,
          "midi": 95,
          "name": "B6",
          "ticks": 11040,
          "time": 10.849054,
          "velocity": 0.6299212598425197
        },
        {
          "duration": 0.2348662958333314,
          "durationTicks": 239,
          "midi": 83,
          "name": "B5",
          "ticks": 11040,
          "time": 10.849054,
          "velocity": 0.6299212598425197
        },
        {
          "duration": 0.2348662958333314,
          "durationTicks": 239,
          "midi": 79,
          "name": "G5",
          "ticks": 11280,
          "time": 11.084903,
          "velocity": 0.6299212598425197
        },
        {
          "duration": 0.2348662958333314,
          "durationTicks": 239,
          "midi": 67,
          "name": "G4",
          "ticks": 11280,
          "time": 11.084903,
          "velocity": 0.6299212598425197
        },
        {
          "duration": 0.2348662958333314,
          "durationTicks": 239,
          "midi": 76,
          "name": "E5",
          "ticks": 11520,
          "time": 11.320752,
          "velocity": 0.6299212598425197
        },
        {
          "duration": 0.2348662958333314,
          "durationTicks": 239,
          "midi": 64,
          "name": "E4",
          "ticks": 11520,
          "time": 11.320752,
          "velocity": 0.6299212598425197
        },
        {
          "duration": 0.11694179583333231,
          "durationTicks": 119,
          "midi": 83,
          "name": "B5",
          "ticks": 11760,
          "time": 11.556601,
          "velocity": 0.6299212598425197
        },
        {
          "duration": 0.11694179583333231,
          "durationTicks": 119,
          "midi": 85,
          "name": "C#6",
          "ticks": 11880,
          "time": 11.6745255,
          "velocity": 0.6299212598425197
        },
        {
          "duration": 0.2348662958333314,
          "durationTicks": 239,
          "midi": 86,
          "name": "D6",
          "ticks": 12000,
          "time": 11.79245,
          "velocity": 0.6299212598425197
        },
        {
          "duration": 0.2348662958333314,
          "durationTicks": 239,
          "midi": 86,
          "name": "D6",
          "ticks": 12240,
          "time": 12.028299,
          "velocity": 0.6299212598425197
        },
        {
          "duration": 0.2348662958333314,
          "durationTicks": 239,
          "midi": 86,
          "name": "D6",
          "ticks": 12480,
          "time": 12.264148,
          "velocity": 0.6299212598425197
        },
        {
          "duration": 0.2348662958333314,
          "durationTicks": 239,
          "midi": 86,
          "name": "D6",
          "ticks": 12720,
          "time": 12.499997,
          "velocity": 0.6299212598425197
        },
        {
          "duration": 0.11694179583333231,
          "durationTicks": 119,
          "midi": 86,
          "name": "D6",
          "ticks": 12960,
          "time": 12.735846,
          "velocity": 0.6299212598425197
        },
        {
          "duration": 0.11694179583333231,
          "durationTicks": 119,
          "midi": 88,
          "name": "E6",
          "ticks": 13080,
          "time": 12.8537705,
          "velocity": 0.6299212598425197
        },
        {
          "duration": 0.11694179583333231,
          "durationTicks": 119,
          "midi": 86,
          "name": "D6",
          "ticks": 13200,
          "time": 12.971695,
          "velocity": 0.6299212598425197
        },
        {
          "duration": 0.11694179583333408,
          "durationTicks": 119,
          "midi": 85,
          "name": "C#6",
          "ticks": 13320,
          "time": 13.0896195,
          "velocity": 0.6299212598425197
        },
        {
          "duration": 0.23486629583333318,
          "durationTicks": 239,
          "midi": 86,
          "name": "D6",
          "ticks": 13440,
          "time": 13.207544,
          "velocity": 0.6299212598425197
        },
        {
          "duration": 0.23486629583333318,
          "durationTicks": 239,
          "midi": 86,
          "name": "D6",
          "ticks": 13920,
          "time": 13.679242,
          "velocity": 0.6299212598425197
        },
        {
          "duration": 0.23486629583333318,
          "durationTicks": 239,
          "midi": 98,
          "name": "D7",
          "ticks": 14160,
          "time": 13.915091,
          "velocity": 0.6299212598425197
        },
        {
          "duration": 0.23486629583333318,
          "durationTicks": 239,
          "midi": 86,
          "name": "D6",
          "ticks": 14160,
          "time": 13.915091,
          "velocity": 0.6299212598425197
        },
        {
          "duration": 0.23486629583333318,
          "durationTicks": 239,
          "midi": 86,
          "name": "D6",
          "ticks": 14400,
          "time": 14.15094,
          "velocity": 0.6299212598425197
        },
        {
          "duration": 0.11694179583333231,
          "durationTicks": 119,
          "midi": 98,
          "name": "D7",
          "ticks": 14640,
          "time": 14.386789,
          "velocity": 0.6299212598425197
        },
        {
          "duration": 0.11694179583333231,
          "durationTicks": 119,
          "midi": 86,
          "name": "D6",
          "ticks": 14640,
          "time": 14.386789,
          "velocity": 0.6299212598425197
        },
        {
          "duration": 0.11694179583333408,
          "durationTicks": 119,
          "midi": 85,
          "name": "C#6",
          "ticks": 14760,
          "time": 14.5047135,
          "velocity": 0.6299212598425197
        },
        {
          "duration": 0.23486629583333318,
          "durationTicks": 239,
          "midi": 83,
          "name": "B5",
          "ticks": 14880,
          "time": 14.622638,
          "velocity": 0.6299212598425197
        },
        {
          "duration": 0.23486629583333318,
          "durationTicks": 239,
          "midi": 76,
          "name": "E5",
          "ticks": 15120,
          "time": 14.858487,
          "velocity": 0.6299212598425197
        },
        {
          "duration": 0.23486629583333496,
          "durationTicks": 239,
          "midi": 76,
          "name": "E5",
          "ticks": 15360,
          "time": 15.094336,
          "velocity": 0.6299212598425197
        },
        {
          "duration": 0.11694179583333408,
          "durationTicks": 119,
          "midi": 83,
          "name": "B5",
          "ticks": 15600,
          "time": 15.330185,
          "velocity": 0.6299212598425197
        },
        {
          "duration": 0.11694179583333408,
          "durationTicks": 119,
          "midi": 85,
          "name": "C#6",
          "ticks": 15720,
          "time": 15.448109500000001,
          "velocity": 0.6299212598425197
        },
        {
          "duration": 0.23486629583333496,
          "durationTicks": 239,
          "midi": 86,
          "name": "D6",
          "ticks": 15840,
          "time": 15.566034,
          "velocity": 0.6299212598425197
        },
        {
          "duration": 0.23486629583333496,
          "durationTicks": 239,
          "midi": 86,
          "name": "D6",
          "ticks": 16080,
          "time": 15.801883,
          "velocity": 0.6299212598425197
        },
        {
          "duration": 0.2348662958333314,
          "durationTicks": 239,
          "midi": 86,
          "name": "D6",
          "ticks": 16320,
          "time": 16.037732000000002,
          "velocity": 0.6299212598425197
        },
        {
          "duration": 0.23486629583333496,
          "durationTicks": 239,
          "midi": 86,
          "name": "D6",
          "ticks": 16560,
          "time": 16.273581,
          "velocity": 0.6299212598425197
        },
        {
          "duration": 0.11694179583333408,
          "durationTicks": 119,
          "midi": 86,
          "name": "D6",
          "ticks": 16800,
          "time": 16.509430000000002,
          "velocity": 0.6299212598425197
        },
        {
          "duration": 0.11694179583333408,
          "durationTicks": 119,
          "midi": 88,
          "name": "E6",
          "ticks": 16920,
          "time": 16.6273545,
          "velocity": 0.6299212598425197
        },
        {
          "duration": 0.11694179583333408,
          "durationTicks": 119,
          "midi": 86,
          "name": "D6",
          "ticks": 17040,
          "time": 16.745279,
          "velocity": 0.6299212598425197
        },
        {
          "duration": 0.11694179583333408,
          "durationTicks": 119,
          "midi": 85,
          "name": "C#6",
          "ticks": 17160,
          "time": 16.8632035,
          "velocity": 0.6299212598425197
        },
        {
          "duration": 0.2348662958333314,
          "durationTicks": 239,
          "midi": 86,
          "name": "D6",
          "ticks": 17280,
          "time": 16.981128000000002,
          "velocity": 0.6299212598425197
        },
        {
          "duration": 0.11694179583333408,
          "durationTicks": 119,
          "midi": 86,
          "name": "D6",
          "ticks": 17520,
          "time": 17.216977,
          "velocity": 0.6299212598425197
        },
        {
          "duration": 0.11694179583333408,
          "durationTicks": 119,
          "midi": 85,
          "name": "C#6",
          "ticks": 17640,
          "time": 17.3349015,
          "velocity": 0.6299212598425197
        },
        {
          "duration": 0.2348662958333314,
          "durationTicks": 239,
          "midi": 86,
          "name": "D6",
          "ticks": 17760,
          "time": 17.452826,
          "velocity": 0.6299212598425197
        },
        {
          "duration": 0.23486629583333496,
          "durationTicks": 239,
          "midi": 98,
          "name": "D7",
          "ticks": 18000,
          "time": 17.688675,
          "velocity": 0.6299212598425197
        },
        {
          "duration": 0.23486629583333496,
          "durationTicks": 239,
          "midi": 86,
          "name": "D6",
          "ticks": 18000,
          "time": 17.688675,
          "velocity": 0.6299212598425197
        },
        {
          "duration": 0.2348662958333314,
          "durationTicks": 239,
          "midi": 85,
          "name": "C#6",
          "ticks": 18240,
          "time": 17.924524,
          "velocity": 0.6299212598425197
        },
        {
          "duration": 0.11694179583333408,
          "durationTicks": 119,
          "midi": 98,
          "name": "D7",
          "ticks": 18480,
          "time": 18.160373,
          "velocity": 0.6299212598425197
        },
        {
          "duration": 0.11694179583333408,
          "durationTicks": 119,
          "midi": 85,
          "name": "C#6",
          "ticks": 18480,
          "time": 18.160373,
          "velocity": 0.6299212598425197
        },
        {
          "duration": 0.11694179583333408,
          "durationTicks": 119,
          "midi": 81,
          "name": "A5",
          "ticks": 18600,
          "time": 18.2782975,
          "velocity": 0.6299212598425197
        },
        {
          "duration": 0.2348662958333314,
          "durationTicks": 239,
          "midi": 76,
          "name": "E5",
          "ticks": 18720,
          "time": 18.396222,
          "velocity": 0.6299212598425197
        },
        {
          "duration": 0.23486629583333496,
          "durationTicks": 239,
          "midi": 71,
          "name": "B4",
          "ticks": 18960,
          "time": 18.632071,
          "velocity": 0.6299212598425197
        },
        {
          "duration": 0.2348662958333314,
          "durationTicks": 239,
          "midi": 71,
          "name": "B4",
          "ticks": 19200,
          "time": 18.86792,
          "velocity": 0.6299212598425197
        },
        {
          "duration": 0.2348662958333314,
          "durationTicks": 239,
          "midi": 64,
          "name": "E4",
          "ticks": 19680,
          "time": 19.339618,
          "velocity": 0.6299212598425197
        },
        {
          "duration": 0.11694179583333408,
          "durationTicks": 119,
          "midi": 63,
          "name": "D#4",
          "ticks": 20040,
          "time": 19.6933915,
          "velocity": 0.6299212598425197
        },
        {
          "duration": 0.2348662958333314,
          "durationTicks": 239,
          "midi": 64,
          "name": "E4",
          "ticks": 20160,
          "time": 19.811316,
          "velocity": 0.6299212598425197
        },
        {
          "duration": 0.23486629583333496,
          "durationTicks": 239,
          "midi": 66,
          "name": "F#4",
          "ticks": 20400,
          "time": 20.047165,
          "velocity": 0.6299212598425197
        },
        {
          "duration": 0.2348662958333314,
          "durationTicks": 239,
          "midi": 67,
          "name": "G4",
          "ticks": 20640,
          "time": 20.283014,
          "velocity": 0.6299212598425197
        },
        {
          "duration": 0.11694179583333408,
          "durationTicks": 119,
          "midi": 66,
          "name": "F#4",
          "ticks": 21000,
          "time": 20.6367875,
          "velocity": 0.6299212598425197
        },
        {
          "duration": 0.2348662958333314,
          "durationTicks": 239,
          "midi": 67,
          "name": "G4",
          "ticks": 21120,
          "time": 20.754712,
          "velocity": 0.6299212598425197
        },
        {
          "duration": 0.23486629583333496,
          "durationTicks": 239,
          "midi": 69,
          "name": "A4",
          "ticks": 21360,
          "time": 20.990561,
          "velocity": 0.6299212598425197
        },
        {
          "duration": 0.2348662958333314,
          "durationTicks": 239,
          "midi": 71,
          "name": "B4",
          "ticks": 21600,
          "time": 21.22641,
          "velocity": 0.6299212598425197
        },
        {
          "duration": 0.2348662958333314,
          "durationTicks": 239,
          "midi": 70,
          "name": "A#4",
          "ticks": 21600,
          "time": 21.22641,
          "velocity": 0.6299212598425197
        },
        {
          "duration": 0.23486629583333496,
          "durationTicks": 239,
          "midi": 71,
          "name": "B4",
          "ticks": 21840,
          "time": 21.462259,
          "velocity": 0.6299212598425197
        },
        {
          "duration": 0.23486629583333496,
          "durationTicks": 239,
          "midi": 70,
          "name": "A#4",
          "ticks": 21840,
          "time": 21.462259,
          "velocity": 0.6299212598425197
        },
        {
          "duration": 0.057979545833333646,
          "durationTicks": 59,
          "midi": 69,
          "name": "A4",
          "ticks": 22020,
          "time": 21.63914575,
          "velocity": 0.6299212598425197
        },
        {
          "duration": 0.23486629583333496,
          "durationTicks": 239,
          "midi": 71,
          "name": "B4",
          "ticks": 22080,
          "time": 21.698108,
          "velocity": 0.6299212598425197
        },
        {
          "duration": 0.23486629583333496,
          "durationTicks": 239,
          "midi": 70,
          "name": "A#4",
          "ticks": 22080,
          "time": 21.698108,
          "velocity": 0.6299212598425197
        },
        {
          "duration": 0.23486629583333496,
          "durationTicks": 239,
          "midi": 81,
          "name": "A5",
          "ticks": 22560,
          "time": 22.169806,
          "velocity": 0.6299212598425197
        },
        {
          "duration": 0.23486629583333496,
          "durationTicks": 239,
          "midi": 80,
          "name": "G#5",
          "ticks": 22560,
          "time": 22.169806,
          "velocity": 0.6299212598425197
        },
        {
          "duration": 0.23486629583333496,
          "durationTicks": 239,
          "midi": 69,
          "name": "A4",
          "ticks": 22560,
          "time": 22.169806,
          "velocity": 0.6299212598425197
        },
        {
          "duration": 0.23486629583333496,
          "durationTicks": 239,
          "midi": 81,
          "name": "A5",
          "ticks": 22800,
          "time": 22.405655,
          "velocity": 0.6299212598425197
        },
        {
          "duration": 0.23486629583333496,
          "durationTicks": 239,
          "midi": 80,
          "name": "G#5",
          "ticks": 22800,
          "time": 22.405655,
          "velocity": 0.6299212598425197
        },
        {
          "duration": 0.23486629583333496,
          "durationTicks": 239,
          "midi": 69,
          "name": "A4",
          "ticks": 22800,
          "time": 22.405655,
          "velocity": 0.6299212598425197
        },
        {
          "duration": 0.23486629583333496,
          "durationTicks": 239,
          "midi": 81,
          "name": "A5",
          "ticks": 23040,
          "time": 22.641504,
          "velocity": 0.6299212598425197
        },
        {
          "duration": 0.23486629583333496,
          "durationTicks": 239,
          "midi": 80,
          "name": "G#5",
          "ticks": 23040,
          "time": 22.641504,
          "velocity": 0.6299212598425197
        },
        {
          "duration": 0.23486629583333496,
          "durationTicks": 239,
          "midi": 69,
          "name": "A4",
          "ticks": 23040,
          "time": 22.641504,
          "velocity": 0.6299212598425197
        },
        {
          "duration": 0.23486629583333496,
          "durationTicks": 239,
          "midi": 64,
          "name": "E4",
          "ticks": 23520,
          "time": 23.113202,
          "velocity": 0.6299212598425197
        },
        {
          "duration": 0.11694179583333408,
          "durationTicks": 119,
          "midi": 63,
          "name": "D#4",
          "ticks": 23880,
          "time": 23.4669755,
          "velocity": 0.6299212598425197
        },
        {
          "duration": 0.23486629583333496,
          "durationTicks": 239,
          "midi": 64,
          "name": "E4",
          "ticks": 24000,
          "time": 23.5849,
          "velocity": 0.6299212598425197
        },
        {
          "duration": 0.23486629583333496,
          "durationTicks": 239,
          "midi": 66,
          "name": "F#4",
          "ticks": 24240,
          "time": 23.820749,
          "velocity": 0.6299212598425197
        },
        {
          "duration": 0.23486629583333496,
          "durationTicks": 239,
          "midi": 67,
          "name": "G4",
          "ticks": 24480,
          "time": 24.056598,
          "velocity": 0.6299212598425197
        },
        {
          "duration": 0.11694179583333408,
          "durationTicks": 119,
          "midi": 66,
          "name": "F#4",
          "ticks": 24840,
          "time": 24.4103715,
          "velocity": 0.6299212598425197
        },
        {
          "duration": 0.23486629583333496,
          "durationTicks": 239,
          "midi": 67,
          "name": "G4",
          "ticks": 24960,
          "time": 24.528296,
          "velocity": 0.6299212598425197
        },
        {
          "duration": 0.23486629583333496,
          "durationTicks": 239,
          "midi": 67,
          "name": "G4",
          "ticks": 25200,
          "time": 24.764145,
          "velocity": 0.6299212598425197
        },
        {
          "duration": 0.23486629583333496,
          "durationTicks": 239,
          "midi": 71,
          "name": "B4",
          "ticks": 25440,
          "time": 24.999994,
          "velocity": 0.6299212598425197
        },
        {
          "duration": 0.23486629583333496,
          "durationTicks": 239,
          "midi": 70,
          "name": "A#4",
          "ticks": 25440,
          "time": 24.999994,
          "velocity": 0.6299212598425197
        },
        {
          "duration": 0.23486629583333496,
          "durationTicks": 239,
          "midi": 71,
          "name": "B4",
          "ticks": 25680,
          "time": 25.235843,
          "velocity": 0.6299212598425197
        },
        {
          "duration": 0.23486629583333496,
          "durationTicks": 239,
          "midi": 70,
          "name": "A#4",
          "ticks": 25680,
          "time": 25.235843,
          "velocity": 0.6299212598425197
        },
        {
          "duration": 0.23486629583333496,
          "durationTicks": 239,
          "midi": 71,
          "name": "B4",
          "ticks": 25920,
          "time": 25.471692,
          "velocity": 0.6299212598425197
        },
        {
          "duration": 0.23486629583333496,
          "durationTicks": 239,
          "midi": 70,
          "name": "A#4",
          "ticks": 25920,
          "time": 25.471692,
          "velocity": 0.6299212598425197
        },
        {
          "duration": 0.23486629583333496,
          "durationTicks": 239,
          "midi": 76,
          "name": "E5",
          "ticks": 26400,
          "time": 25.94339,
          "velocity": 0.6299212598425197
        },
        {
          "duration": 0.23486629583333496,
          "durationTicks": 239,
          "midi": 75,
          "name": "D#5",
          "ticks": 26400,
          "time": 25.94339,
          "velocity": 0.6299212598425197
        },
        {
          "duration": 0.23486629583333496,
          "durationTicks": 239,
          "midi": 71,
          "name": "B4",
          "ticks": 26400,
          "time": 25.94339,
          "velocity": 0.6299212598425197
        },
        {
          "duration": 0.23486629583333496,
          "durationTicks": 239,
          "midi": 76,
          "name": "E5",
          "ticks": 26640,
          "time": 26.179239,
          "velocity": 0.6299212598425197
        },
        {
          "duration": 0.23486629583333496,
          "durationTicks": 239,
          "midi": 75,
          "name": "D#5",
          "ticks": 26640,
          "time": 26.179239,
          "velocity": 0.6299212598425197
        },
        {
          "duration": 0.23486629583333496,
          "durationTicks": 239,
          "midi": 71,
          "name": "B4",
          "ticks": 26640,
          "time": 26.179239,
          "velocity": 0.6299212598425197
        },
        {
          "duration": 0.23486629583333496,
          "durationTicks": 239,
          "midi": 71,
          "name": "B4",
          "ticks": 26880,
          "time": 26.415088,
          "velocity": 0.6299212598425197
        },
        {
          "duration": 0.23486629583333496,
          "durationTicks": 239,
          "midi": 75,
          "name": "D#5",
          "ticks": 26940,
          "time": 26.47405025,
          "velocity": 0.6299212598425197
        },
        {
          "duration": 0.2348662958333314,
          "durationTicks": 239,
          "midi": 76,
          "name": "E5",
          "ticks": 27000,
          "time": 26.5330125,
          "velocity": 0.6299212598425197
        },
        {
          "duration": 0.23486629583333496,
          "durationTicks": 239,
          "midi": 83,
          "name": "B5",
          "ticks": 27360,
          "time": 26.886786,
          "velocity": 0.6299212598425197
        },
        {
          "duration": 0.11694179583333408,
          "durationTicks": 119,
          "midi": 83,
          "name": "B5",
          "ticks": 27720,
          "time": 27.2405595,
          "velocity": 0.6299212598425197
        },
        {
          "duration": 0.23486629583333496,
          "durationTicks": 239,
          "midi": 83,
          "name": "B5",
          "ticks": 27840,
          "time": 27.358484,
          "velocity": 0.6299212598425197
        },
        {
          "duration": 0.23486629583333496,
          "durationTicks": 239,
          "midi": 82,
          "name": "A#5",
          "ticks": 28080,
          "time": 27.594333,
          "velocity": 0.6299212598425197
        },
        {
          "duration": 0.47071529583333316,
          "durationTicks": 479,
          "midi": 83,
          "name": "B5",
          "ticks": 28320,
          "time": 27.830182,
          "velocity": 0.6299212598425197
        },
        {
          "duration": 0.23486629583333496,
          "durationTicks": 239,
          "midi": 83,
          "name": "B5",
          "ticks": 29040,
          "time": 28.537729,
          "velocity": 0.6299212598425197
        },
        {
          "duration": 0.23486629583333496,
          "durationTicks": 239,
          "midi": 82,
          "name": "A#5",
          "ticks": 29280,
          "time": 28.773578,
          "velocity": 0.6299212598425197
        },
        {
          "duration": 0.23486629583333496,
          "durationTicks": 239,
          "midi": 71,
          "name": "B4",
          "ticks": 29280,
          "time": 28.773578,
          "velocity": 0.6299212598425197
        },
        {
          "duration": 0.23486629583333496,
          "durationTicks": 239,
          "midi": 68,
          "name": "G#4",
          "ticks": 29280,
          "time": 28.773578,
          "velocity": 0.6299212598425197
        },
        {
          "duration": 0.23486629583333496,
          "durationTicks": 239,
          "midi": 82,
          "name": "A#5",
          "ticks": 29520,
          "time": 29.009427,
          "velocity": 0.6299212598425197
        },
        {
          "duration": 0.23486629583333496,
          "durationTicks": 239,
          "midi": 71,
          "name": "B4",
          "ticks": 29520,
          "time": 29.009427,
          "velocity": 0.6299212598425197
        },
        {
          "duration": 0.23486629583333496,
          "durationTicks": 239,
          "midi": 68,
          "name": "G#4",
          "ticks": 29520,
          "time": 29.009427,
          "velocity": 0.6299212598425197
        },
        {
          "duration": 0.23486629583333496,
          "durationTicks": 239,
          "midi": 82,
          "name": "A#5",
          "ticks": 29760,
          "time": 29.245276,
          "velocity": 0.6299212598425197
        },
        {
          "duration": 0.23486629583333496,
          "durationTicks": 239,
          "midi": 71,
          "name": "B4",
          "ticks": 29760,
          "time": 29.245276,
          "velocity": 0.6299212598425197
        },
        {
          "duration": 0.23486629583333496,
          "durationTicks": 239,
          "midi": 68,
          "name": "G#4",
          "ticks": 29760,
          "time": 29.245276,
          "velocity": 0.6299212598425197
        },
        {
          "duration": 0.23486629583333496,
          "durationTicks": 239,
          "midi": 83,
          "name": "B5",
          "ticks": 30240,
          "time": 29.716974,
          "velocity": 0.6299212598425197
        },
        {
          "duration": 0.23486629583333496,
          "durationTicks": 239,
          "midi": 76,
          "name": "E5",
          "ticks": 30480,
          "time": 29.952823,
          "velocity": 0.6299212598425197
        },
        {
          "duration": 0.23486629583333496,
          "durationTicks": 239,
          "midi": 83,
          "name": "B5",
          "ticks": 30720,
          "time": 30.188672,
          "velocity": 0.6299212598425197
        },
        {
          "duration": 0.23486629583333496,
          "durationTicks": 239,
          "midi": 83,
          "name": "B5",
          "ticks": 31200,
          "time": 30.66037,
          "velocity": 0.6299212598425197
        },
        {
          "duration": 0.11694179583333408,
          "durationTicks": 119,
          "midi": 82,
          "name": "A#5",
          "ticks": 31560,
          "time": 31.0141435,
          "velocity": 0.6299212598425197
        },
        {
          "duration": 0.23486629583333496,
          "durationTicks": 239,
          "midi": 83,
          "name": "B5",
          "ticks": 31680,
          "time": 31.132068,
          "velocity": 0.6299212598425197
        },
        {
          "duration": 0.2348662958333314,
          "durationTicks": 239,
          "midi": 84,
          "name": "C6",
          "ticks": 31920,
          "time": 31.367917000000002,
          "velocity": 0.6299212598425197
        },
        {
          "duration": 0.4707152958333367,
          "durationTicks": 479,
          "midi": 83,
          "name": "B5",
          "ticks": 32160,
          "time": 31.603766,
          "velocity": 0.6299212598425197
        },
        {
          "duration": 0.23486629583333496,
          "durationTicks": 239,
          "midi": 83,
          "name": "B5",
          "ticks": 32880,
          "time": 32.311313,
          "velocity": 0.6299212598425197
        },
        {
          "duration": 0.23486629583333496,
          "durationTicks": 239,
          "midi": 82,
          "name": "A#5",
          "ticks": 33120,
          "time": 32.547162,
          "velocity": 0.6299212598425197
        },
        {
          "duration": 0.23486629583333496,
          "durationTicks": 239,
          "midi": 71,
          "name": "B4",
          "ticks": 33120,
          "time": 32.547162,
          "velocity": 0.6299212598425197
        },
        {
          "duration": 0.23486629583333496,
          "durationTicks": 239,
          "midi": 68,
          "name": "G#4",
          "ticks": 33120,
          "time": 32.547162,
          "velocity": 0.6299212598425197
        },
        {
          "duration": 0.23486629583333496,
          "durationTicks": 239,
          "midi": 82,
          "name": "A#5",
          "ticks": 33360,
          "time": 32.783011,
          "velocity": 0.6299212598425197
        },
        {
          "duration": 0.23486629583333496,
          "durationTicks": 239,
          "midi": 71,
          "name": "B4",
          "ticks": 33360,
          "time": 32.783011,
          "velocity": 0.6299212598425197
        },
        {
          "duration": 0.23486629583333496,
          "durationTicks": 239,
          "midi": 68,
          "name": "G#4",
          "ticks": 33360,
          "time": 32.783011,
          "velocity": 0.6299212598425197
        },
        {
          "duration": 0.23486629583332785,
          "durationTicks": 239,
          "midi": 82,
          "name": "A#5",
          "ticks": 33600,
          "time": 33.018860000000004,
          "velocity": 0.6299212598425197
        },
        {
          "duration": 0.23486629583332785,
          "durationTicks": 239,
          "midi": 71,
          "name": "B4",
          "ticks": 33600,
          "time": 33.018860000000004,
          "velocity": 0.6299212598425197
        },
        {
          "duration": 0.23486629583332785,
          "durationTicks": 239,
          "midi": 68,
          "name": "G#4",
          "ticks": 33600,
          "time": 33.018860000000004,
          "velocity": 0.6299212598425197
        },
        {
          "duration": 0.23486629583333496,
          "durationTicks": 239,
          "midi": 83,
          "name": "B5",
          "ticks": 34080,
          "time": 33.490558,
          "velocity": 0.6299212598425197
        },
        {
          "duration": 0.23486629583333496,
          "durationTicks": 239,
          "midi": 76,
          "name": "E5",
          "ticks": 34320,
          "time": 33.726407,
          "velocity": 0.6299212598425197
        },
        {
          "duration": 0.23486629583332785,
          "durationTicks": 239,
          "midi": 76,
          "name": "E5",
          "ticks": 34560,
          "time": 33.962256000000004,
          "velocity": 0.6299212598425197
        },
        {
          "duration": 0.23486629583333496,
          "durationTicks": 239,
          "midi": 79,
          "name": "G5",
          "ticks": 35040,
          "time": 34.433954,
          "velocity": 0.6299212598425197
        },
        {
          "duration": 0.23486629583333496,
          "durationTicks": 239,
          "midi": 76,
          "name": "E5",
          "ticks": 35280,
          "time": 34.669803,
          "velocity": 0.6299212598425197
        },
        {
          "duration": 0.23486629583332785,
          "durationTicks": 239,
          "midi": 78,
          "name": "F#5",
          "ticks": 35520,
          "time": 34.905652,
          "velocity": 0.6299212598425197
        },
        {
          "duration": 0.23486629583333496,
          "durationTicks": 239,
          "midi": 78,
          "name": "F#5",
          "ticks": 35760,
          "time": 35.141501,
          "velocity": 0.6299212598425197
        },
        {
          "duration": 0.23486629583333496,
          "durationTicks": 239,
          "midi": 79,
          "name": "G5",
          "ticks": 36000,
          "time": 35.37735,
          "velocity": 0.6299212598425197
        },
        {
          "duration": 0.11694179583333408,
          "durationTicks": 119,
          "midi": 95,
          "name": "B6",
          "ticks": 36240,
          "time": 35.613199,
          "velocity": 0.6299212598425197
        },
        {
          "duration": 0.11694179583333408,
          "durationTicks": 119,
          "midi": 96,
          "name": "C7",
          "ticks": 36360,
          "time": 35.7311235,
          "velocity": 0.6299212598425197
        },
        {
          "duration": 0.23486629583332785,
          "durationTicks": 239,
          "midi": 95,
          "name": "B6",
          "ticks": 36480,
          "time": 35.849048,
          "velocity": 0.6299212598425197
        },
        {
          "duration": 0.11694179583333408,
          "durationTicks": 119,
          "midi": 76,
          "name": "E5",
          "ticks": 36720,
          "time": 36.084897,
          "velocity": 0.6299212598425197
        },
        {
          "duration": 0.11694179583333408,
          "durationTicks": 119,
          "midi": 76,
          "name": "E5",
          "ticks": 36840,
          "time": 36.2028215,
          "velocity": 0.6299212598425197
        },
        {
          "duration": 0.23486629583333496,
          "durationTicks": 239,
          "midi": 76,
          "name": "E5",
          "ticks": 36960,
          "time": 36.320746,
          "velocity": 0.6299212598425197
        },
        {
          "duration": 0.23486629583333496,
          "durationTicks": 239,
          "midi": 76,
          "name": "E5",
          "ticks": 37200,
          "time": 36.556595,
          "velocity": 0.6299212598425197
        },
        {
          "duration": 0.23486629583333496,
          "durationTicks": 239,
          "midi": 78,
          "name": "F#5",
          "ticks": 37440,
          "time": 36.792444,
          "velocity": 0.6299212598425197
        },
        {
          "duration": 0.23486629583333496,
          "durationTicks": 239,
          "midi": 78,
          "name": "F#5",
          "ticks": 37680,
          "time": 37.028293,
          "velocity": 0.6299212598425197
        },
        {
          "duration": 0.23486629583333496,
          "durationTicks": 239,
          "midi": 79,
          "name": "G5",
          "ticks": 37920,
          "time": 37.264142,
          "velocity": 0.6299212598425197
        },
        {
          "duration": 0.11694179583333408,
          "durationTicks": 119,
          "midi": 88,
          "name": "E6",
          "ticks": 38160,
          "time": 37.499991,
          "velocity": 0.6299212598425197
        },
        {
          "duration": 0.11694179583333408,
          "durationTicks": 119,
          "midi": 90,
          "name": "F#6",
          "ticks": 38280,
          "time": 37.6179155,
          "velocity": 0.6299212598425197
        },
        {
          "duration": 0.23486629583333496,
          "durationTicks": 239,
          "midi": 88,
          "name": "E6",
          "ticks": 38400,
          "time": 37.73584,
          "velocity": 0.6299212598425197
        },
        {
          "duration": 0.11694179583333408,
          "durationTicks": 119,
          "midi": 76,
          "name": "E5",
          "ticks": 38640,
          "time": 37.971689,
          "velocity": 0.6299212598425197
        },
        {
          "duration": 0.11694179583333408,
          "durationTicks": 119,
          "midi": 78,
          "name": "F#5",
          "ticks": 38760,
          "time": 38.0896135,
          "velocity": 0.6299212598425197
        },
        {
          "duration": 0.23486629583333496,
          "durationTicks": 239,
          "midi": 79,
          "name": "G5",
          "ticks": 38880,
          "time": 38.207538,
          "velocity": 0.6299212598425197
        },
        {
          "duration": 0.23486629583333496,
          "durationTicks": 239,
          "midi": 76,
          "name": "E5",
          "ticks": 39120,
          "time": 38.443387,
          "velocity": 0.6299212598425197
        },
        {
          "duration": 0.23486629583333496,
          "durationTicks": 239,
          "midi": 78,
          "name": "F#5",
          "ticks": 39360,
          "time": 38.679236,
          "velocity": 0.6299212598425197
        },
        {
          "duration": 0.23486629583333496,
          "durationTicks": 239,
          "midi": 78,
          "name": "F#5",
          "ticks": 39600,
          "time": 38.915085,
          "velocity": 0.6299212598425197
        },
        {
          "duration": 0.23486629583333496,
          "durationTicks": 239,
          "midi": 79,
          "name": "G5",
          "ticks": 39840,
          "time": 39.150934,
          "velocity": 0.6299212598425197
        },
        {
          "duration": 0.11694179583333408,
          "durationTicks": 119,
          "midi": 95,
          "name": "B6",
          "ticks": 40080,
          "time": 39.386783,
          "velocity": 0.6299212598425197
        },
        {
          "duration": 0.11694179583333408,
          "durationTicks": 119,
          "midi": 96,
          "name": "C7",
          "ticks": 40200,
          "time": 39.5047075,
          "velocity": 0.6299212598425197
        },
        {
          "duration": 0.23486629583333496,
          "durationTicks": 239,
          "midi": 95,
          "name": "B6",
          "ticks": 40320,
          "time": 39.622632,
          "velocity": 0.6299212598425197
        },
        {
          "duration": 0.11694179583333408,
          "durationTicks": 119,
          "midi": 76,
          "name": "E5",
          "ticks": 40560,
          "time": 39.858481,
          "velocity": 0.6299212598425197
        },
        {
          "duration": 0.11694179583333408,
          "durationTicks": 119,
          "midi": 76,
          "name": "E5",
          "ticks": 40680,
          "time": 39.9764055,
          "velocity": 0.6299212598425197
        },
        {
          "duration": 0.23486629583333496,
          "durationTicks": 239,
          "midi": 76,
          "name": "E5",
          "ticks": 40800,
          "time": 40.09433,
          "velocity": 0.6299212598425197
        },
        {
          "duration": 0.23486629583333496,
          "durationTicks": 239,
          "midi": 76,
          "name": "E5",
          "ticks": 41040,
          "time": 40.330179,
          "velocity": 0.6299212598425197
        },
        {
          "duration": 0.23486629583333496,
          "durationTicks": 239,
          "midi": 78,
          "name": "F#5",
          "ticks": 41280,
          "time": 40.566028,
          "velocity": 0.6299212598425197
        },
        {
          "duration": 0.23486629583333496,
          "durationTicks": 239,
          "midi": 78,
          "name": "F#5",
          "ticks": 41520,
          "time": 40.801877,
          "velocity": 0.6299212598425197
        },
        {
          "duration": 0.23486629583333496,
          "durationTicks": 239,
          "midi": 76,
          "name": "E5",
          "ticks": 41760,
          "time": 41.037726,
          "velocity": 0.6299212598425197
        },
        {
          "duration": 0.11694179583333408,
          "durationTicks": 119,
          "midi": 100,
          "name": "E7",
          "ticks": 42000,
          "time": 41.273575,
          "velocity": 0.6299212598425197
        },
        {
          "duration": 0.11694179583333408,
          "durationTicks": 119,
          "midi": 102,
          "name": "F#7",
          "ticks": 42120,
          "time": 41.3914995,
          "velocity": 0.6299212598425197
        },
        {
          "duration": 0.23486629583333496,
          "durationTicks": 239,
          "midi": 100,
          "name": "E7",
          "ticks": 42240,
          "time": 41.509424,
          "velocity": 0.6299212598425197
        },
        {
          "duration": 0.23486629583333496,
          "durationTicks": 239,
          "midi": 79,
          "name": "G5",
          "ticks": 42720,
          "time": 41.981122,
          "velocity": 0.6299212598425197
        },
        {
          "duration": 0.23486629583333496,
          "durationTicks": 239,
          "midi": 79,
          "name": "G5",
          "ticks": 42960,
          "time": 42.216971,
          "velocity": 0.6299212598425197
        },
        {
          "duration": 0.23486629583333496,
          "durationTicks": 239,
          "midi": 79,
          "name": "G5",
          "ticks": 43200,
          "time": 42.45282,
          "velocity": 0.6299212598425197
        },
        {
          "duration": 0.23486629583333496,
          "durationTicks": 239,
          "midi": 79,
          "name": "G5",
          "ticks": 43440,
          "time": 42.688669,
          "velocity": 0.6299212598425197
        },
        {
          "duration": 0.11694179583333408,
          "durationTicks": 119,
          "midi": 79,
          "name": "G5",
          "ticks": 43680,
          "time": 42.924518,
          "velocity": 0.6299212598425197
        },
        {
          "duration": 0.11694179583333408,
          "durationTicks": 119,
          "midi": 81,
          "name": "A5",
          "ticks": 43800,
          "time": 43.0424425,
          "velocity": 0.6299212598425197
        },
        {
          "duration": 0.11694179583333408,
          "durationTicks": 119,
          "midi": 79,
          "name": "G5",
          "ticks": 43920,
          "time": 43.160367,
          "velocity": 0.6299212598425197
        },
        {
          "duration": 0.11694179583333408,
          "durationTicks": 119,
          "midi": 78,
          "name": "F#5",
          "ticks": 44040,
          "time": 43.2782915,
          "velocity": 0.6299212598425197
        },
        {
          "duration": 0.23486629583333496,
          "durationTicks": 239,
          "midi": 79,
          "name": "G5",
          "ticks": 44160,
          "time": 43.396216,
          "velocity": 0.6299212598425197
        },
        {
          "duration": 0.11694179583333408,
          "durationTicks": 119,
          "midi": 79,
          "name": "G5",
          "ticks": 44400,
          "time": 43.632065,
          "velocity": 0.6299212598425197
        },
        {
          "duration": 0.11694179583333408,
          "durationTicks": 119,
          "midi": 78,
          "name": "F#5",
          "ticks": 44520,
          "time": 43.7499895,
          "velocity": 0.6299212598425197
        },
        {
          "duration": 0.23486629583333496,
          "durationTicks": 239,
          "midi": 79,
          "name": "G5",
          "ticks": 44640,
          "time": 43.867914,
          "velocity": 0.6299212598425197
        },
        {
          "duration": 0.23486629583333496,
          "durationTicks": 239,
          "midi": 79,
          "name": "G5",
          "ticks": 44880,
          "time": 44.103763,
          "velocity": 0.6299212598425197
        },
        {
          "duration": 0.11694179583333408,
          "durationTicks": 119,
          "midi": 79,
          "name": "G5",
          "ticks": 45120,
          "time": 44.339612,
          "velocity": 0.6299212598425197
        },
        {
          "duration": 0.11694179583333408,
          "durationTicks": 119,
          "midi": 81,
          "name": "A5",
          "ticks": 45240,
          "time": 44.4575365,
          "velocity": 0.6299212598425197
        },
        {
          "duration": 0.11694179583334119,
          "durationTicks": 119,
          "midi": 79,
          "name": "G5",
          "ticks": 45360,
          "time": 44.575461,
          "velocity": 0.6299212598425197
        },
        {
          "duration": 0.11694179583333408,
          "durationTicks": 119,
          "midi": 78,
          "name": "F#5",
          "ticks": 45480,
          "time": 44.6933855,
          "velocity": 0.6299212598425197
        },
        {
          "duration": 0.23486629583333496,
          "durationTicks": 239,
          "midi": 76,
          "name": "E5",
          "ticks": 45600,
          "time": 44.81131,
          "velocity": 0.6299212598425197
        },
        {
          "duration": 0.23486629583333496,
          "durationTicks": 239,
          "midi": 76,
          "name": "E5",
          "ticks": 45840,
          "time": 45.047159,
          "velocity": 0.6299212598425197
        },
        {
          "duration": 0.11694179583333408,
          "durationTicks": 119,
          "midi": 76,
          "name": "E5",
          "ticks": 46320,
          "time": 45.518857000000004,
          "velocity": 0.6299212598425197
        },
        {
          "duration": 0.11694179583333408,
          "durationTicks": 119,
          "midi": 78,
          "name": "F#5",
          "ticks": 46440,
          "time": 45.6367815,
          "velocity": 0.6299212598425197
        },
        {
          "duration": 0.23486629583333496,
          "durationTicks": 239,
          "midi": 79,
          "name": "G5",
          "ticks": 46560,
          "time": 45.754706,
          "velocity": 0.6299212598425197
        },
        {
          "duration": 0.23486629583333496,
          "durationTicks": 239,
          "midi": 79,
          "name": "G5",
          "ticks": 46800,
          "time": 45.990555,
          "velocity": 0.6299212598425197
        },
        {
          "duration": 0.23486629583333496,
          "durationTicks": 239,
          "midi": 79,
          "name": "G5",
          "ticks": 47040,
          "time": 46.226404,
          "velocity": 0.6299212598425197
        },
        {
          "duration": 0.23486629583332785,
          "durationTicks": 239,
          "midi": 79,
          "name": "G5",
          "ticks": 47280,
          "time": 46.462253000000004,
          "velocity": 0.6299212598425197
        },
        {
          "duration": 0.11694179583333408,
          "durationTicks": 119,
          "midi": 79,
          "name": "G5",
          "ticks": 47520,
          "time": 46.698102,
          "velocity": 0.6299212598425197
        },
        {
          "duration": 0.11694179583333408,
          "durationTicks": 119,
          "midi": 81,
          "name": "A5",
          "ticks": 47640,
          "time": 46.8160265,
          "velocity": 0.6299212598425197
        },
        {
          "duration": 0.11694179583333408,
          "durationTicks": 119,
          "midi": 79,
          "name": "G5",
          "ticks": 47760,
          "time": 46.933951,
          "velocity": 0.6299212598425197
        },
        {
          "duration": 0.11694179583333408,
          "durationTicks": 119,
          "midi": 78,
          "name": "F#5",
          "ticks": 47880,
          "time": 47.0518755,
          "velocity": 0.6299212598425197
        },
        {
          "duration": 0.23486629583333496,
          "durationTicks": 239,
          "midi": 79,
          "name": "G5",
          "ticks": 48000,
          "time": 47.1698,
          "velocity": 0.6299212598425197
        },
        {
          "duration": 0.11694179583333408,
          "durationTicks": 119,
          "midi": 79,
          "name": "G5",
          "ticks": 48240,
          "time": 47.405649000000004,
          "velocity": 0.6299212598425197
        },
        {
          "duration": 0.11694179583333408,
          "durationTicks": 119,
          "midi": 78,
          "name": "F#5",
          "ticks": 48360,
          "time": 47.5235735,
          "velocity": 0.6299212598425197
        },
        {
          "duration": 0.11694179583333408,
          "durationTicks": 119,
          "midi": 79,
          "name": "G5",
          "ticks": 48480,
          "time": 47.641498,
          "velocity": 0.6299212598425197
        },
        {
          "duration": 0.11694179583333408,
          "durationTicks": 119,
          "midi": 81,
          "name": "A5",
          "ticks": 48600,
          "time": 47.7594225,
          "velocity": 0.6299212598425197
        },
        {
          "duration": 0.11694179583333408,
          "durationTicks": 119,
          "midi": 83,
          "name": "B5",
          "ticks": 48720,
          "time": 47.877347,
          "velocity": 0.6299212598425197
        },
        {
          "duration": 0.11694179583333408,
          "durationTicks": 119,
          "midi": 79,
          "name": "G5",
          "ticks": 48840,
          "time": 47.9952715,
          "velocity": 0.6299212598425197
        },
        {
          "duration": 0.11694179583333408,
          "durationTicks": 119,
          "midi": 78,
          "name": "F#5",
          "ticks": 48960,
          "time": 48.113196,
          "velocity": 0.6299212598425197
        },
        {
          "duration": 0.11694179583333408,
          "durationTicks": 119,
          "midi": 81,
          "name": "A5",
          "ticks": 49080,
          "time": 48.2311205,
          "velocity": 0.6299212598425197
        },
        {
          "duration": 0.11694179583333408,
          "durationTicks": 119,
          "midi": 79,
          "name": "G5",
          "ticks": 49200,
          "time": 48.349045000000004,
          "velocity": 0.6299212598425197
        },
        {
          "duration": 0.11694179583333408,
          "durationTicks": 119,
          "midi": 78,
          "name": "F#5",
          "ticks": 49320,
          "time": 48.4669695,
          "velocity": 0.6299212598425197
        },
        {
          "duration": 0.23486629583333496,
          "durationTicks": 239,
          "midi": 76,
          "name": "E5",
          "ticks": 49440,
          "time": 48.584894,
          "velocity": 0.6299212598425197
        },
        {
          "duration": 0.23486629583333496,
          "durationTicks": 239,
          "midi": 76,
          "name": "E5",
          "ticks": 49680,
          "time": 48.820743,
          "velocity": 0.6299212598425197
        },
        {
          "duration": 0.23486629583333496,
          "durationTicks": 239,
          "midi": 76,
          "name": "E5",
          "ticks": 49920,
          "time": 49.056592,
          "velocity": 0.6299212598425197
        },
        {
          "duration": 0.11694179583333408,
          "durationTicks": 119,
          "midi": 79,
          "name": "G5",
          "ticks": 50160,
          "time": 49.292441000000004,
          "velocity": 0.6299212598425197
        },
        {
          "duration": 0.11694179583333408,
          "durationTicks": 119,
          "midi": 81,
          "name": "A5",
          "ticks": 50280,
          "time": 49.4103655,
          "velocity": 0.6299212598425197
        },
        {
          "duration": 0.11694179583333408,
          "durationTicks": 119,
          "midi": 83,
          "name": "B5",
          "ticks": 50400,
          "time": 49.52829,
          "velocity": 0.6299212598425197
        },
        {
          "duration": 0.11694179583333408,
          "durationTicks": 119,
          "midi": 83,
          "name": "B5",
          "ticks": 50520,
          "time": 49.6462145,
          "velocity": 0.6299212598425197
        },
        {
          "duration": 0.11694179583333408,
          "durationTicks": 119,
          "midi": 83,
          "name": "B5",
          "ticks": 50640,
          "time": 49.764139,
          "velocity": 0.6299212598425197
        },
        {
          "duration": 0.11694179583333408,
          "durationTicks": 119,
          "midi": 83,
          "name": "B5",
          "ticks": 50760,
          "time": 49.8820635,
          "velocity": 0.6299212598425197
        },
        {
          "duration": 0.11694179583333408,
          "durationTicks": 119,
          "midi": 83,
          "name": "B5",
          "ticks": 50880,
          "time": 49.999988,
          "velocity": 0.6299212598425197
        },
        {
          "duration": 0.11694179583333408,
          "durationTicks": 119,
          "midi": 83,
          "name": "B5",
          "ticks": 51000,
          "time": 50.1179125,
          "velocity": 0.6299212598425197
        },
        {
          "duration": 0.11694179583333408,
          "durationTicks": 119,
          "midi": 83,
          "name": "B5",
          "ticks": 51120,
          "time": 50.235837000000004,
          "velocity": 0.6299212598425197
        },
        {
          "duration": 0.11694179583333408,
          "durationTicks": 119,
          "midi": 83,
          "name": "B5",
          "ticks": 51240,
          "time": 50.3537615,
          "velocity": 0.6299212598425197
        },
        {
          "duration": 0.11694179583333408,
          "durationTicks": 119,
          "midi": 83,
          "name": "B5",
          "ticks": 51360,
          "time": 50.471686,
          "velocity": 0.6299212598425197
        },
        {
          "duration": 0.11694179583333408,
          "durationTicks": 119,
          "midi": 85,
          "name": "C#6",
          "ticks": 51480,
          "time": 50.5896105,
          "velocity": 0.6299212598425197
        },
        {
          "duration": 0.11694179583333408,
          "durationTicks": 119,
          "midi": 83,
          "name": "B5",
          "ticks": 51480,
          "time": 50.5896105,
          "velocity": 0.6299212598425197
        },
        {
          "duration": 0.11694179583333408,
          "durationTicks": 119,
          "midi": 83,
          "name": "B5",
          "ticks": 51600,
          "time": 50.707535,
          "velocity": 0.6299212598425197
        },
        {
          "duration": 0.11694179583333408,
          "durationTicks": 119,
          "midi": 83,
          "name": "B5",
          "ticks": 51720,
          "time": 50.8254595,
          "velocity": 0.6299212598425197
        },
        {
          "duration": 0.11694179583333408,
          "durationTicks": 119,
          "midi": 81,
          "name": "A5",
          "ticks": 51720,
          "time": 50.8254595,
          "velocity": 0.6299212598425197
        },
        {
          "duration": 0.11694179583333408,
          "durationTicks": 119,
          "midi": 83,
          "name": "B5",
          "ticks": 51840,
          "time": 50.943384,
          "velocity": 0.6299212598425197
        },
        {
          "duration": 0.11694179583333408,
          "durationTicks": 119,
          "midi": 83,
          "name": "B5",
          "ticks": 51960,
          "time": 51.0613085,
          "velocity": 0.6299212598425197
        },
        {
          "duration": 0.11694179583333408,
          "durationTicks": 119,
          "midi": 83,
          "name": "B5",
          "ticks": 52080,
          "time": 51.179233,
          "velocity": 0.6299212598425197
        },
        {
          "duration": 0.11694179583333408,
          "durationTicks": 119,
          "midi": 79,
          "name": "G5",
          "ticks": 52080,
          "time": 51.179233,
          "velocity": 0.6299212598425197
        },
        {
          "duration": 0.11694179583333408,
          "durationTicks": 119,
          "midi": 83,
          "name": "B5",
          "ticks": 52200,
          "time": 51.2971575,
          "velocity": 0.6299212598425197
        },
        {
          "duration": 0.11694179583333408,
          "durationTicks": 119,
          "midi": 81,
          "name": "A5",
          "ticks": 52200,
          "time": 51.2971575,
          "velocity": 0.6299212598425197
        },
        {
          "duration": 0.11694179583333408,
          "durationTicks": 119,
          "midi": 83,
          "name": "B5",
          "ticks": 52320,
          "time": 51.415082,
          "velocity": 0.6299212598425197
        },
        {
          "duration": 0.11694179583333408,
          "durationTicks": 119,
          "midi": 83,
          "name": "B5",
          "ticks": 52440,
          "time": 51.5330065,
          "velocity": 0.6299212598425197
        },
        {
          "duration": 0.11694179583333408,
          "durationTicks": 119,
          "midi": 83,
          "name": "B5",
          "ticks": 52560,
          "time": 51.650931,
          "velocity": 0.6299212598425197
        },
        {
          "duration": 0.11694179583333408,
          "durationTicks": 119,
          "midi": 83,
          "name": "B5",
          "ticks": 52680,
          "time": 51.7688555,
          "velocity": 0.6299212598425197
        },
        {
          "duration": 0.11694179583333408,
          "durationTicks": 119,
          "midi": 86,
          "name": "D6",
          "ticks": 52800,
          "time": 51.88678,
          "velocity": 0.6299212598425197
        },
        {
          "duration": 0.11694179583333408,
          "durationTicks": 119,
          "midi": 83,
          "name": "B5",
          "ticks": 52800,
          "time": 51.88678,
          "velocity": 0.6299212598425197
        },
        {
          "duration": 0.11694179583333408,
          "durationTicks": 119,
          "midi": 85,
          "name": "C#6",
          "ticks": 52920,
          "time": 52.0047045,
          "velocity": 0.6299212598425197
        },
        {
          "duration": 0.11694179583333408,
          "durationTicks": 119,
          "midi": 83,
          "name": "B5",
          "ticks": 52920,
          "time": 52.0047045,
          "velocity": 0.6299212598425197
        },
        {
          "duration": 0.11694179583333408,
          "durationTicks": 119,
          "midi": 86,
          "name": "D6",
          "ticks": 53040,
          "time": 52.122629,
          "velocity": 0.6299212598425197
        },
        {
          "duration": 0.11694179583333408,
          "durationTicks": 119,
          "midi": 83,
          "name": "B5",
          "ticks": 53040,
          "time": 52.122629,
          "velocity": 0.6299212598425197
        },
        {
          "duration": 0.11694179583334119,
          "durationTicks": 119,
          "midi": 85,
          "name": "C#6",
          "ticks": 53160,
          "time": 52.2405535,
          "velocity": 0.6299212598425197
        },
        {
          "duration": 0.11694179583334119,
          "durationTicks": 119,
          "midi": 83,
          "name": "B5",
          "ticks": 53160,
          "time": 52.2405535,
          "velocity": 0.6299212598425197
        },
        {
          "duration": 0.23486629583333496,
          "durationTicks": 239,
          "midi": 83,
          "name": "B5",
          "ticks": 53280,
          "time": 52.358478,
          "velocity": 0.6299212598425197
        },
        {
          "duration": 0.11694179583333408,
          "durationTicks": 119,
          "midi": 76,
          "name": "E5",
          "ticks": 54000,
          "time": 53.066025,
          "velocity": 0.6299212598425197
        },
        {
          "duration": 0.11694179583333408,
          "durationTicks": 119,
          "midi": 78,
          "name": "F#5",
          "ticks": 54120,
          "time": 53.183949500000004,
          "velocity": 0.6299212598425197
        },
        {
          "duration": 0.11694179583333408,
          "durationTicks": 119,
          "midi": 83,
          "name": "B5",
          "ticks": 54240,
          "time": 53.301874,
          "velocity": 0.6299212598425197
        },
        {
          "duration": 0.23486629583333496,
          "durationTicks": 239,
          "midi": 79,
          "name": "G5",
          "ticks": 54240,
          "time": 53.301874,
          "velocity": 0.6299212598425197
        },
        {
          "duration": 0.11694179583333408,
          "durationTicks": 119,
          "midi": 83,
          "name": "B5",
          "ticks": 54360,
          "time": 53.4197985,
          "velocity": 0.6299212598425197
        },
        {
          "duration": 0.11694179583333408,
          "durationTicks": 119,
          "midi": 83,
          "name": "B5",
          "ticks": 54480,
          "time": 53.537723,
          "velocity": 0.6299212598425197
        },
        {
          "duration": 0.23486629583333496,
          "durationTicks": 239,
          "midi": 79,
          "name": "G5",
          "ticks": 54480,
          "time": 53.537723,
          "velocity": 0.6299212598425197
        },
        {
          "duration": 0.11694179583333408,
          "durationTicks": 119,
          "midi": 83,
          "name": "B5",
          "ticks": 54600,
          "time": 53.6556475,
          "velocity": 0.6299212598425197
        },
        {
          "duration": 0.11694179583333408,
          "durationTicks": 119,
          "midi": 81,
          "name": "A5",
          "ticks": 54720,
          "time": 53.773572,
          "velocity": 0.6299212598425197
        },
        {
          "duration": 0.23486629583333496,
          "durationTicks": 239,
          "midi": 79,
          "name": "G5",
          "ticks": 54720,
          "time": 53.773572,
          "velocity": 0.6299212598425197
        },
        {
          "duration": 0.11694179583333408,
          "durationTicks": 119,
          "midi": 81,
          "name": "A5",
          "ticks": 54840,
          "time": 53.8914965,
          "velocity": 0.6299212598425197
        },
        {
          "duration": 0.11694179583333408,
          "durationTicks": 119,
          "midi": 81,
          "name": "A5",
          "ticks": 54960,
          "time": 54.009421,
          "velocity": 0.6299212598425197
        },
        {
          "duration": 0.23486629583333496,
          "durationTicks": 239,
          "midi": 79,
          "name": "G5",
          "ticks": 54960,
          "time": 54.009421,
          "velocity": 0.6299212598425197
        },
        {
          "duration": 0.11694179583333408,
          "durationTicks": 119,
          "midi": 81,
          "name": "A5",
          "ticks": 55080,
          "time": 54.127345500000004,
          "velocity": 0.6299212598425197
        },
        {
          "duration": 0.23486629583333496,
          "durationTicks": 239,
          "midi": 79,
          "name": "G5",
          "ticks": 55200,
          "time": 54.24527,
          "velocity": 0.6299212598425197
        },
        {
          "duration": 0.11694179583333408,
          "durationTicks": 119,
          "midi": 79,
          "name": "G5",
          "ticks": 55320,
          "time": 54.3631945,
          "velocity": 0.6299212598425197
        },
        {
          "duration": 0.23486629583333496,
          "durationTicks": 239,
          "midi": 79,
          "name": "G5",
          "ticks": 55440,
          "time": 54.481119,
          "velocity": 0.6299212598425197
        },
        {
          "duration": 0.11694179583333408,
          "durationTicks": 119,
          "midi": 79,
          "name": "G5",
          "ticks": 55560,
          "time": 54.5990435,
          "velocity": 0.6299212598425197
        },
        {
          "duration": 0.11694179583333408,
          "durationTicks": 119,
          "midi": 78,
          "name": "F#5",
          "ticks": 55680,
          "time": 54.716968,
          "velocity": 0.6299212598425197
        },
        {
          "duration": 0.23486629583333496,
          "durationTicks": 239,
          "midi": 79,
          "name": "G5",
          "ticks": 55680,
          "time": 54.716968,
          "velocity": 0.6299212598425197
        },
        {
          "duration": 0.11694179583333408,
          "durationTicks": 119,
          "midi": 78,
          "name": "F#5",
          "ticks": 55800,
          "time": 54.8348925,
          "velocity": 0.6299212598425197
        },
        {
          "duration": 0.11694179583333408,
          "durationTicks": 119,
          "midi": 78,
          "name": "F#5",
          "ticks": 55920,
          "time": 54.952817,
          "velocity": 0.6299212598425197
        },
        {
          "duration": 0.11694179583333408,
          "durationTicks": 119,
          "midi": 79,
          "name": "G5",
          "ticks": 55920,
          "time": 54.952817,
          "velocity": 0.6299212598425197
        },
        {
          "duration": 0.11694179583333408,
          "durationTicks": 119,
          "midi": 78,
          "name": "F#5",
          "ticks": 56040,
          "time": 55.070741500000004,
          "velocity": 0.6299212598425197
        },
        {
          "duration": 0.23486629583333496,
          "durationTicks": 239,
          "midi": 79,
          "name": "G5",
          "ticks": 56160,
          "time": 55.188666,
          "velocity": 0.6299212598425197
        },
        {
          "duration": 0.23486629583333496,
          "durationTicks": 239,
          "midi": 76,
          "name": "E5",
          "ticks": 56160,
          "time": 55.188666,
          "velocity": 0.6299212598425197
        },
        {
          "duration": 0.11694179583333408,
          "durationTicks": 119,
          "midi": 79,
          "name": "G5",
          "ticks": 56400,
          "time": 55.424515,
          "velocity": 0.6299212598425197
        },
        {
          "duration": 0.11694179583333408,
          "durationTicks": 119,
          "midi": 81,
          "name": "A5",
          "ticks": 56520,
          "time": 55.5424395,
          "velocity": 0.6299212598425197
        },
        {
          "duration": 0.23486629583333496,
          "durationTicks": 239,
          "midi": 79,
          "name": "G5",
          "ticks": 56640,
          "time": 55.660364,
          "velocity": 0.6299212598425197
        },
        {
          "duration": 0.23486629583333496,
          "durationTicks": 239,
          "midi": 78,
          "name": "F#5",
          "ticks": 56880,
          "time": 55.896213,
          "velocity": 0.6299212598425197
        },
        {
          "duration": 0.23486629583333496,
          "durationTicks": 239,
          "midi": 76,
          "name": "E5",
          "ticks": 57120,
          "time": 56.132062,
          "velocity": 0.6299212598425197
        },
        {
          "duration": 0.23486629583333496,
          "durationTicks": 239,
          "midi": 71,
          "name": "B4",
          "ticks": 57120,
          "time": 56.132062,
          "velocity": 0.6299212598425197
        },
        {
          "duration": 0.23486629583333496,
          "durationTicks": 239,
          "midi": 67,
          "name": "G4",
          "ticks": 57120,
          "time": 56.132062,
          "velocity": 0.6299212598425197
        },
        {
          "duration": 0.23486629583333496,
          "durationTicks": 239,
          "midi": 64,
          "name": "E4",
          "ticks": 57120,
          "time": 56.132062,
          "velocity": 0.6299212598425197
        },
        {
          "duration": 0.23486629583333496,
          "durationTicks": 239,
          "midi": 83,
          "name": "B5",
          "ticks": 58080,
          "time": 57.075458,
          "velocity": 0.6299212598425197
        },
        {
          "duration": 0.23486629583333496,
          "durationTicks": 239,
          "midi": 82,
          "name": "A#5",
          "ticks": 58320,
          "time": 57.311307,
          "velocity": 0.6299212598425197
        },
        {
          "duration": 0.23486629583333496,
          "durationTicks": 239,
          "midi": 83,
          "name": "B5",
          "ticks": 58560,
          "time": 57.547156,
          "velocity": 0.6299212598425197
        },
        {
          "duration": 0.23486629583333496,
          "durationTicks": 239,
          "midi": 84,
          "name": "C6",
          "ticks": 58800,
          "time": 57.783005,
          "velocity": 0.6299212598425197
        },
        {
          "duration": 0.23486629583333496,
          "durationTicks": 239,
          "midi": 83,
          "name": "B5",
          "ticks": 59040,
          "time": 58.018854,
          "velocity": 0.6299212598425197
        },
        {
          "duration": 0.23486629583333496,
          "durationTicks": 239,
          "midi": 76,
          "name": "E5",
          "ticks": 59280,
          "time": 58.254703,
          "velocity": 0.6299212598425197
        },
        {
          "duration": 0.11694179583333408,
          "durationTicks": 119,
          "midi": 83,
          "name": "B5",
          "ticks": 59760,
          "time": 58.726401,
          "velocity": 0.6299212598425197
        },
        {
          "duration": 0.11694179583333408,
          "durationTicks": 119,
          "midi": 83,
          "name": "B5",
          "ticks": 59880,
          "time": 58.844325500000004,
          "velocity": 0.6299212598425197
        },
        {
          "duration": 0.11694179583333408,
          "durationTicks": 119,
          "midi": 83,
          "name": "B5",
          "ticks": 60000,
          "time": 58.96225,
          "velocity": 0.6299212598425197
        },
        {
          "duration": 0.11694179583333408,
          "durationTicks": 119,
          "midi": 82,
          "name": "A#5",
          "ticks": 60120,
          "time": 59.0801745,
          "velocity": 0.6299212598425197
        },
        {
          "duration": 0.11694179583333408,
          "durationTicks": 119,
          "midi": 83,
          "name": "B5",
          "ticks": 60240,
          "time": 59.198099,
          "velocity": 0.6299212598425197
        },
        {
          "duration": 0.11694179583333408,
          "durationTicks": 119,
          "midi": 81,
          "name": "A5",
          "ticks": 60360,
          "time": 59.3160235,
          "velocity": 0.6299212598425197
        },
        {
          "duration": 0.23486629583333496,
          "durationTicks": 239,
          "midi": 79,
          "name": "G5",
          "ticks": 60480,
          "time": 59.433948,
          "velocity": 0.6299212598425197
        },
        {
          "duration": 0.23486629583333496,
          "durationTicks": 239,
          "midi": 78,
          "name": "F#5",
          "ticks": 60720,
          "time": 59.669797,
          "velocity": 0.6299212598425197
        },
        {
          "duration": 0.23486629583333496,
          "durationTicks": 239,
          "midi": 76,
          "name": "E5",
          "ticks": 60960,
          "time": 59.905646,
          "velocity": 0.6299212598425197
        },
        {
          "duration": 0.11694179583333408,
          "durationTicks": 119,
          "midi": 76,
          "name": "E5",
          "ticks": 61680,
          "time": 60.613193,
          "velocity": 0.6299212598425197
        },
        {
          "duration": 0.11694179583333408,
          "durationTicks": 119,
          "midi": 78,
          "name": "F#5",
          "ticks": 61800,
          "time": 60.7311175,
          "velocity": 0.6299212598425197
        },
        {
          "duration": 0.23486629583332785,
          "durationTicks": 239,
          "midi": 79,
          "name": "G5",
          "ticks": 61920,
          "time": 60.849042000000004,
          "velocity": 0.6299212598425197
        },
        {
          "duration": 0.23486629583333496,
          "durationTicks": 239,
          "midi": 76,
          "name": "E5",
          "ticks": 62160,
          "time": 61.084891,
          "velocity": 0.6299212598425197
        },
        {
          "duration": 0.23486629583333496,
          "durationTicks": 239,
          "midi": 90,
          "name": "F#6",
          "ticks": 62400,
          "time": 61.32074,
          "velocity": 0.6299212598425197
        },
        {
          "duration": 0.23486629583333496,
          "durationTicks": 239,
          "midi": 90,
          "name": "F#6",
          "ticks": 62640,
          "time": 61.556589,
          "velocity": 0.6299212598425197
        },
        {
          "duration": 0.23486629583332785,
          "durationTicks": 239,
          "midi": 95,
          "name": "B6",
          "ticks": 62880,
          "time": 61.792438000000004,
          "velocity": 0.6299212598425197
        },
        {
          "duration": 0.23486629583333496,
          "durationTicks": 239,
          "midi": 88,
          "name": "E6",
          "ticks": 63120,
          "time": 62.028287,
          "velocity": 0.6299212598425197
        },
        {
          "duration": 0.11694179583333408,
          "durationTicks": 119,
          "midi": 83,
          "name": "B5",
          "ticks": 63600,
          "time": 62.499985,
          "velocity": 0.6299212598425197
        },
        {
          "duration": 0.11694179583333408,
          "durationTicks": 119,
          "midi": 83,
          "name": "B5",
          "ticks": 63720,
          "time": 62.6179095,
          "velocity": 0.6299212598425197
        },
        {
          "duration": 0.11694179583333408,
          "durationTicks": 119,
          "midi": 95,
          "name": "B6",
          "ticks": 63840,
          "time": 62.735834000000004,
          "velocity": 0.6299212598425197
        },
        {
          "duration": 0.11694179583333408,
          "durationTicks": 119,
          "midi": 94,
          "name": "A#6",
          "ticks": 63960,
          "time": 62.8537585,
          "velocity": 0.6299212598425197
        },
        {
          "duration": 0.11694179583333408,
          "durationTicks": 119,
          "midi": 95,
          "name": "B6",
          "ticks": 64080,
          "time": 62.971683,
          "velocity": 0.6299212598425197
        },
        {
          "duration": 0.11694179583333408,
          "durationTicks": 119,
          "midi": 93,
          "name": "A6",
          "ticks": 64200,
          "time": 63.0896075,
          "velocity": 0.6299212598425197
        },
        {
          "duration": 0.23486629583333496,
          "durationTicks": 239,
          "midi": 91,
          "name": "G6",
          "ticks": 64320,
          "time": 63.207532,
          "velocity": 0.6299212598425197
        },
        {
          "duration": 0.23486629583333496,
          "durationTicks": 239,
          "midi": 90,
          "name": "F#6",
          "ticks": 64560,
          "time": 63.443381,
          "velocity": 0.6299212598425197
        },
        {
          "duration": 0.4707152958333296,
          "durationTicks": 479,
          "midi": 88,
          "name": "E6",
          "ticks": 64800,
          "time": 63.679230000000004,
          "velocity": 0.6299212598425197
        },
        {
          "duration": 0.4707152958333438,
          "durationTicks": 479,
          "midi": 88,
          "name": "E6",
          "ticks": 65760,
          "time": 64.622626,
          "velocity": 0.6299212598425197
        },
        {
          "duration": 0.4707152958333438,
          "durationTicks": 479,
          "midi": 83,
          "name": "B5",
          "ticks": 65760,
          "time": 64.622626,
          "velocity": 0.6299212598425197
        },
        {
          "duration": 0.4707152958333438,
          "durationTicks": 479,
          "midi": 82,
          "name": "A#5",
          "ticks": 65760,
          "time": 64.622626,
          "velocity": 0.6299212598425197
        },
        {
          "duration": 0.4707152958333438,
          "durationTicks": 479,
          "midi": 81,
          "name": "A5",
          "ticks": 65760,
          "time": 64.622626,
          "velocity": 0.6299212598425197
        },
        {
          "duration": 0.4707152958333438,
          "durationTicks": 479,
          "midi": 79,
          "name": "G5",
          "ticks": 65760,
          "time": 64.622626,
          "velocity": 0.6299212598425197
        }
      ],
      "endOfTrackTicks": 66240
    },
    {
      "channel": 0,
      "controlChanges": {},
      "pitchBends": [],
      "instrument": {
        "family": "piano",
        "number": 0,
        "name": "acoustic grand piano"
      },
      "name": "",
      "notes": [
        {
          "duration": 0.4707152958333333,
          "durationTicks": 479,
          "midi": 52,
          "name": "E3",
          "ticks": 480,
          "time": 0.471698,
          "velocity": 0.6299212598425197
        },
        {
          "duration": 0.4707152958333335,
          "durationTicks": 479,
          "midi": 47,
          "name": "B2",
          "ticks": 960,
          "time": 0.943396,
          "velocity": 0.6299212598425197
        },
        {
          "duration": 0.4707152958333334,
          "durationTicks": 479,
          "midi": 52,
          "name": "E3",
          "ticks": 1440,
          "time": 1.415094,
          "velocity": 0.6299212598425197
        },
        {
          "duration": 0.2348662958333334,
          "durationTicks": 239,
          "midi": 47,
          "name": "B2",
          "ticks": 1920,
          "time": 1.886792,
          "velocity": 0.6299212598425197
        },
        {
          "duration": 0.23486629583333318,
          "durationTicks": 239,
          "midi": 55,
          "name": "G3",
          "ticks": 2160,
          "time": 2.1226410000000002,
          "velocity": 0.6299212598425197
        },
        {
          "duration": 0.47071529583333316,
          "durationTicks": 479,
          "midi": 52,
          "name": "E3",
          "ticks": 2400,
          "time": 2.35849,
          "velocity": 0.6299212598425197
        },
        {
          "duration": 0.23486629583333318,
          "durationTicks": 239,
          "midi": 47,
          "name": "B2",
          "ticks": 2880,
          "time": 2.830188,
          "velocity": 0.6299212598425197
        },
        {
          "duration": 0.23486629583333318,
          "durationTicks": 239,
          "midi": 59,
          "name": "B3",
          "ticks": 3120,
          "time": 3.066037,
          "velocity": 0.6299212598425197
        },
        {
          "duration": 0.47071529583333316,
          "durationTicks": 479,
          "midi": 52,
          "name": "E3",
          "ticks": 3360,
          "time": 3.301886,
          "velocity": 0.6299212598425197
        },
        {
          "duration": 0.23486629583333318,
          "durationTicks": 239,
          "midi": 52,
          "name": "E3",
          "ticks": 4320,
          "time": 4.2452820000000004,
          "velocity": 0.6299212598425197
        },
        {
          "duration": 0.23486629583333318,
          "durationTicks": 239,
          "midi": 59,
          "name": "B3",
          "ticks": 4560,
          "time": 4.481131,
          "velocity": 0.6299212598425197
        },
        {
          "duration": 0.23486629583333318,
          "durationTicks": 239,
          "midi": 55,
          "name": "G3",
          "ticks": 4560,
          "time": 4.481131,
          "velocity": 0.6299212598425197
        },
        {
          "duration": 0.23486629583333318,
          "durationTicks": 239,
          "midi": 52,
          "name": "E3",
          "ticks": 4560,
          "time": 4.481131,
          "velocity": 0.6299212598425197
        },
        {
          "duration": 0.23486629583333318,
          "durationTicks": 239,
          "midi": 47,
          "name": "B2",
          "ticks": 4800,
          "time": 4.71698,
          "velocity": 0.6299212598425197
        },
        {
          "duration": 0.23486629583333318,
          "durationTicks": 239,
          "midi": 59,
          "name": "B3",
          "ticks": 5040,
          "time": 4.952829,
          "velocity": 0.6299212598425197
        },
        {
          "duration": 0.23486629583333318,
          "durationTicks": 239,
          "midi": 55,
          "name": "G3",
          "ticks": 5040,
          "time": 4.952829,
          "velocity": 0.6299212598425197
        },
        {
          "duration": 0.23486629583333318,
          "durationTicks": 239,
          "midi": 52,
          "name": "E3",
          "ticks": 5040,
          "time": 4.952829,
          "velocity": 0.6299212598425197
        },
        {
          "duration": 0.23486629583333318,
          "durationTicks": 239,
          "midi": 52,
          "name": "E3",
          "ticks": 5280,
          "time": 5.188678,
          "velocity": 0.6299212598425197
        },
        {
          "duration": 0.23486629583333318,
          "durationTicks": 239,
          "midi": 59,
          "name": "B3",
          "ticks": 5520,
          "time": 5.424527,
          "velocity": 0.6299212598425197
        },
        {
          "duration": 0.23486629583333318,
          "durationTicks": 239,
          "midi": 55,
          "name": "G3",
          "ticks": 5520,
          "time": 5.424527,
          "velocity": 0.6299212598425197
        },
        {
          "duration": 0.23486629583333318,
          "durationTicks": 239,
          "midi": 52,
          "name": "E3",
          "ticks": 5520,
          "time": 5.424527,
          "velocity": 0.6299212598425197
        },
        {
          "duration": 0.23486629583333318,
          "durationTicks": 239,
          "midi": 47,
          "name": "B2",
          "ticks": 5760,
          "time": 5.660376,
          "velocity": 0.6299212598425197
        },
        {
          "duration": 0.23486629583333318,
          "durationTicks": 239,
          "midi": 59,
          "name": "B3",
          "ticks": 6000,
          "time": 5.896225,
          "velocity": 0.6299212598425197
        },
        {
          "duration": 0.23486629583333318,
          "durationTicks": 239,
          "midi": 55,
          "name": "G3",
          "ticks": 6000,
          "time": 5.896225,
          "velocity": 0.6299212598425197
        },
        {
          "duration": 0.23486629583333318,
          "durationTicks": 239,
          "midi": 52,
          "name": "E3",
          "ticks": 6000,
          "time": 5.896225,
          "velocity": 0.6299212598425197
        },
        {
          "duration": 0.23486629583333318,
          "durationTicks": 239,
          "midi": 55,
          "name": "G3",
          "ticks": 6240,
          "time": 6.132074,
          "velocity": 0.6299212598425197
        },
        {
          "duration": 0.23486629583333318,
          "durationTicks": 239,
          "midi": 62,
          "name": "D4",
          "ticks": 6480,
          "time": 6.367923,
          "velocity": 0.6299212598425197
        },
        {
          "duration": 0.23486629583333318,
          "durationTicks": 239,
          "midi": 59,
          "name": "B3",
          "ticks": 6480,
          "time": 6.367923,
          "velocity": 0.6299212598425197
        },
        {
          "duration": 0.23486629583333318,
          "durationTicks": 239,
          "midi": 55,
          "name": "G3",
          "ticks": 6480,
          "time": 6.367923,
          "velocity": 0.6299212598425197
        },
        {
          "duration": 0.23486629583333318,
          "durationTicks": 239,
          "midi": 50,
          "name": "D3",
          "ticks": 6720,
          "time": 6.603772,
          "velocity": 0.6299212598425197
        },
        {
          "duration": 0.23486629583333318,
          "durationTicks": 239,
          "midi": 62,
          "name": "D4",
          "ticks": 6960,
          "time": 6.839621,
          "velocity": 0.6299212598425197
        },
        {
          "duration": 0.23486629583333318,
          "durationTicks": 239,
          "midi": 59,
          "name": "B3",
          "ticks": 6960,
          "time": 6.839621,
          "velocity": 0.6299212598425197
        },
        {
          "duration": 0.23486629583333318,
          "durationTicks": 239,
          "midi": 55,
          "name": "G3",
          "ticks": 6960,
          "time": 6.839621,
          "velocity": 0.6299212598425197
        },
        {
          "duration": 0.23486629583333318,
          "durationTicks": 239,
          "midi": 52,
          "name": "E3",
          "ticks": 7200,
          "time": 7.07547,
          "velocity": 0.6299212598425197
        },
        {
          "duration": 0.1169417958333332,
          "durationTicks": 119,
          "midi": 59,
          "name": "B3",
          "ticks": 7560,
          "time": 7.4292435,
          "velocity": 0.6299212598425197
        },
        {
          "duration": 0.1169417958333332,
          "durationTicks": 119,
          "midi": 55,
          "name": "G3",
          "ticks": 7560,
          "time": 7.4292435,
          "velocity": 0.6299212598425197
        },
        {
          "duration": 0.1169417958333332,
          "durationTicks": 119,
          "midi": 52,
          "name": "E3",
          "ticks": 7560,
          "time": 7.4292435,
          "velocity": 0.6299212598425197
        },
        {
          "duration": 0.2348662958333323,
          "durationTicks": 239,
          "midi": 47,
          "name": "B2",
          "ticks": 7680,
          "time": 7.547168,
          "velocity": 0.6299212598425197
        },
        {
          "duration": 0.2348662958333323,
          "durationTicks": 239,
          "midi": 59,
          "name": "B3",
          "ticks": 7920,
          "time": 7.783017,
          "velocity": 0.6299212598425197
        },
        {
          "duration": 0.2348662958333323,
          "durationTicks": 239,
          "midi": 55,
          "name": "G3",
          "ticks": 7920,
          "time": 7.783017,
          "velocity": 0.6299212598425197
        },
        {
          "duration": 0.2348662958333323,
          "durationTicks": 239,
          "midi": 52,
          "name": "E3",
          "ticks": 7920,
          "time": 7.783017,
          "velocity": 0.6299212598425197
        },
        {
          "duration": 0.2348662958333314,
          "durationTicks": 239,
          "midi": 52,
          "name": "E3",
          "ticks": 8160,
          "time": 8.018866000000001,
          "velocity": 0.6299212598425197
        },
        {
          "duration": 0.2348662958333314,
          "durationTicks": 239,
          "midi": 59,
          "name": "B3",
          "ticks": 8400,
          "time": 8.254715000000001,
          "velocity": 0.6299212598425197
        },
        {
          "duration": 0.2348662958333314,
          "durationTicks": 239,
          "midi": 55,
          "name": "G3",
          "ticks": 8400,
          "time": 8.254715000000001,
          "velocity": 0.6299212598425197
        },
        {
          "duration": 0.2348662958333314,
          "durationTicks": 239,
          "midi": 52,
          "name": "E3",
          "ticks": 8400,
          "time": 8.254715000000001,
          "velocity": 0.6299212598425197
        },
        {
          "duration": 0.2348662958333314,
          "durationTicks": 239,
          "midi": 47,
          "name": "B2",
          "ticks": 8640,
          "time": 8.490564000000001,
          "velocity": 0.6299212598425197
        },
        {
          "duration": 0.2348662958333314,
          "durationTicks": 239,
          "midi": 59,
          "name": "B3",
          "ticks": 8880,
          "time": 8.726413,
          "velocity": 0.6299212598425197
        },
        {
          "duration": 0.2348662958333314,
          "durationTicks": 239,
          "midi": 55,
          "name": "G3",
          "ticks": 8880,
          "time": 8.726413,
          "velocity": 0.6299212598425197
        },
        {
          "duration": 0.2348662958333314,
          "durationTicks": 239,
          "midi": 52,
          "name": "E3",
          "ticks": 8880,
          "time": 8.726413,
          "velocity": 0.6299212598425197
        },
        {
          "duration": 0.2348662958333314,
          "durationTicks": 239,
          "midi": 52,
          "name": "E3",
          "ticks": 9120,
          "time": 8.962262,
          "velocity": 0.6299212598425197
        },
        {
          "duration": 0.11694179583333231,
          "durationTicks": 119,
          "midi": 59,
          "name": "B3",
          "ticks": 9360,
          "time": 9.198111,
          "velocity": 0.6299212598425197
        },
        {
          "duration": 0.11694179583333231,
          "durationTicks": 119,
          "midi": 55,
          "name": "G3",
          "ticks": 9360,
          "time": 9.198111,
          "velocity": 0.6299212598425197
        },
        {
          "duration": 0.11694179583333231,
          "durationTicks": 119,
          "midi": 52,
          "name": "E3",
          "ticks": 9360,
          "time": 9.198111,
          "velocity": 0.6299212598425197
        },
        {
          "duration": 0.11694179583333231,
          "durationTicks": 119,
          "midi": 59,
          "name": "B3",
          "ticks": 9480,
          "time": 9.3160355,
          "velocity": 0.6299212598425197
        },
        {
          "duration": 0.11694179583333231,
          "durationTicks": 119,
          "midi": 55,
          "name": "G3",
          "ticks": 9480,
          "time": 9.3160355,
          "velocity": 0.6299212598425197
        },
        {
          "duration": 0.11694179583333231,
          "durationTicks": 119,
          "midi": 52,
          "name": "E3",
          "ticks": 9480,
          "time": 9.3160355,
          "velocity": 0.6299212598425197
        },
        {
          "duration": 0.2348662958333314,
          "durationTicks": 239,
          "midi": 47,
          "name": "B2",
          "ticks": 9600,
          "time": 9.43396,
          "velocity": 0.6299212598425197
        },
        {
          "duration": 0.2348662958333314,
          "durationTicks": 239,
          "midi": 59,
          "name": "B3",
          "ticks": 9840,
          "time": 9.669809,
          "velocity": 0.6299212598425197
        },
        {
          "duration": 0.2348662958333314,
          "durationTicks": 239,
          "midi": 55,
          "name": "G3",
          "ticks": 9840,
          "time": 9.669809,
          "velocity": 0.6299212598425197
        },
        {
          "duration": 0.2348662958333314,
          "durationTicks": 239,
          "midi": 52,
          "name": "E3",
          "ticks": 9840,
          "time": 9.669809,
          "velocity": 0.6299212598425197
        },
        {
          "duration": 0.2348662958333314,
          "durationTicks": 239,
          "midi": 55,
          "name": "G3",
          "ticks": 10080,
          "time": 9.905658,
          "velocity": 0.6299212598425197
        },
        {
          "duration": 0.2348662958333314,
          "durationTicks": 239,
          "midi": 62,
          "name": "D4",
          "ticks": 10320,
          "time": 10.141507,
          "velocity": 0.6299212598425197
        },
        {
          "duration": 0.2348662958333314,
          "durationTicks": 239,
          "midi": 59,
          "name": "B3",
          "ticks": 10320,
          "time": 10.141507,
          "velocity": 0.6299212598425197
        },
        {
          "duration": 0.2348662958333314,
          "durationTicks": 239,
          "midi": 55,
          "name": "G3",
          "ticks": 10320,
          "time": 10.141507,
          "velocity": 0.6299212598425197
        },
        {
          "duration": 0.2348662958333314,
          "durationTicks": 239,
          "midi": 50,
          "name": "D3",
          "ticks": 10560,
          "time": 10.377356,
          "velocity": 0.6299212598425197
        },
        {
          "duration": 0.2348662958333314,
          "durationTicks": 239,
          "midi": 62,
          "name": "D4",
          "ticks": 10800,
          "time": 10.613205,
          "velocity": 0.6299212598425197
        },
        {
          "duration": 0.2348662958333314,
          "durationTicks": 239,
          "midi": 59,
          "name": "B3",
          "ticks": 10800,
          "time": 10.613205,
          "velocity": 0.6299212598425197
        },
        {
          "duration": 0.2348662958333314,
          "durationTicks": 239,
          "midi": 55,
          "name": "G3",
          "ticks": 10800,
          "time": 10.613205,
          "velocity": 0.6299212598425197
        },
        {
          "duration": 0.2348662958333314,
          "durationTicks": 239,
          "midi": 52,
          "name": "E3",
          "ticks": 11040,
          "time": 10.849054,
          "velocity": 0.6299212598425197
        },
        {
          "duration": 0.11694179583333231,
          "durationTicks": 119,
          "midi": 59,
          "name": "B3",
          "ticks": 11400,
          "time": 11.2028275,
          "velocity": 0.6299212598425197
        },
        {
          "duration": 0.11694179583333231,
          "durationTicks": 119,
          "midi": 55,
          "name": "G3",
          "ticks": 11400,
          "time": 11.2028275,
          "velocity": 0.6299212598425197
        },
        {
          "duration": 0.11694179583333231,
          "durationTicks": 119,
          "midi": 52,
          "name": "E3",
          "ticks": 11400,
          "time": 11.2028275,
          "velocity": 0.6299212598425197
        },
        {
          "duration": 0.2348662958333314,
          "durationTicks": 239,
          "midi": 47,
          "name": "B2",
          "ticks": 11520,
          "time": 11.320752,
          "velocity": 0.6299212598425197
        },
        {
          "duration": 0.2348662958333314,
          "durationTicks": 239,
          "midi": 59,
          "name": "B3",
          "ticks": 11760,
          "time": 11.556601,
          "velocity": 0.6299212598425197
        },
        {
          "duration": 0.2348662958333314,
          "durationTicks": 239,
          "midi": 55,
          "name": "G3",
          "ticks": 11760,
          "time": 11.556601,
          "velocity": 0.6299212598425197
        },
        {
          "duration": 0.2348662958333314,
          "durationTicks": 239,
          "midi": 52,
          "name": "E3",
          "ticks": 11760,
          "time": 11.556601,
          "velocity": 0.6299212598425197
        },
        {
          "duration": 0.2348662958333314,
          "durationTicks": 239,
          "midi": 55,
          "name": "G3",
          "ticks": 12000,
          "time": 11.79245,
          "velocity": 0.6299212598425197
        },
        {
          "duration": 0.2348662958333314,
          "durationTicks": 239,
          "midi": 62,
          "name": "D4",
          "ticks": 12240,
          "time": 12.028299,
          "velocity": 0.6299212598425197
        },
        {
          "duration": 0.2348662958333314,
          "durationTicks": 239,
          "midi": 59,
          "name": "B3",
          "ticks": 12240,
          "time": 12.028299,
          "velocity": 0.6299212598425197
        },
        {
          "duration": 0.2348662958333314,
          "durationTicks": 239,
          "midi": 55,
          "name": "G3",
          "ticks": 12240,
          "time": 12.028299,
          "velocity": 0.6299212598425197
        },
        {
          "duration": 0.2348662958333314,
          "durationTicks": 239,
          "midi": 50,
          "name": "D3",
          "ticks": 12480,
          "time": 12.264148,
          "velocity": 0.6299212598425197
        },
        {
          "duration": 0.2348662958333314,
          "durationTicks": 239,
          "midi": 62,
          "name": "D4",
          "ticks": 12720,
          "time": 12.499997,
          "velocity": 0.6299212598425197
        },
        {
          "duration": 0.2348662958333314,
          "durationTicks": 239,
          "midi": 59,
          "name": "B3",
          "ticks": 12720,
          "time": 12.499997,
          "velocity": 0.6299212598425197
        },
        {
          "duration": 0.2348662958333314,
          "durationTicks": 239,
          "midi": 55,
          "name": "G3",
          "ticks": 12720,
          "time": 12.499997,
          "velocity": 0.6299212598425197
        },
        {
          "duration": 0.2348662958333314,
          "durationTicks": 239,
          "midi": 55,
          "name": "G3",
          "ticks": 12960,
          "time": 12.735846,
          "velocity": 0.6299212598425197
        },
        {
          "duration": 0.23486629583333318,
          "durationTicks": 239,
          "midi": 62,
          "name": "D4",
          "ticks": 13200,
          "time": 12.971695,
          "velocity": 0.6299212598425197
        },
        {
          "duration": 0.23486629583333318,
          "durationTicks": 239,
          "midi": 59,
          "name": "B3",
          "ticks": 13200,
          "time": 12.971695,
          "velocity": 0.6299212598425197
        },
        {
          "duration": 0.23486629583333318,
          "durationTicks": 239,
          "midi": 55,
          "name": "G3",
          "ticks": 13200,
          "time": 12.971695,
          "velocity": 0.6299212598425197
        },
        {
          "duration": 0.23486629583333318,
          "durationTicks": 239,
          "midi": 50,
          "name": "D3",
          "ticks": 13440,
          "time": 13.207544,
          "velocity": 0.6299212598425197
        },
        {
          "duration": 0.23486629583333318,
          "durationTicks": 239,
          "midi": 62,
          "name": "D4",
          "ticks": 13680,
          "time": 13.443393,
          "velocity": 0.6299212598425197
        },
        {
          "duration": 0.23486629583333318,
          "durationTicks": 239,
          "midi": 59,
          "name": "B3",
          "ticks": 13680,
          "time": 13.443393,
          "velocity": 0.6299212598425197
        },
        {
          "duration": 0.23486629583333318,
          "durationTicks": 239,
          "midi": 55,
          "name": "G3",
          "ticks": 13680,
          "time": 13.443393,
          "velocity": 0.6299212598425197
        },
        {
          "duration": 0.23486629583333318,
          "durationTicks": 239,
          "midi": 59,
          "name": "B3",
          "ticks": 13920,
          "time": 13.679242,
          "velocity": 0.6299212598425197
        },
        {
          "duration": 0.23486629583333318,
          "durationTicks": 239,
          "midi": 62,
          "name": "D4",
          "ticks": 14160,
          "time": 13.915091,
          "velocity": 0.6299212598425197
        },
        {
          "duration": 0.23486629583333318,
          "durationTicks": 239,
          "midi": 59,
          "name": "B3",
          "ticks": 14160,
          "time": 13.915091,
          "velocity": 0.6299212598425197
        },
        {
          "duration": 0.23486629583333318,
          "durationTicks": 239,
          "midi": 55,
          "name": "G3",
          "ticks": 14160,
          "time": 13.915091,
          "velocity": 0.6299212598425197
        },
        {
          "duration": 0.23486629583333318,
          "durationTicks": 239,
          "midi": 57,
          "name": "A3",
          "ticks": 14400,
          "time": 14.15094,
          "velocity": 0.6299212598425197
        },
        {
          "duration": 0.23486629583333318,
          "durationTicks": 239,
          "midi": 62,
          "name": "D4",
          "ticks": 14640,
          "time": 14.386789,
          "velocity": 0.6299212598425197
        },
        {
          "duration": 0.23486629583333318,
          "durationTicks": 239,
          "midi": 57,
          "name": "A3",
          "ticks": 14640,
          "time": 14.386789,
          "velocity": 0.6299212598425197
        },
        {
          "duration": 0.23486629583333318,
          "durationTicks": 239,
          "midi": 55,
          "name": "G3",
          "ticks": 14640,
          "time": 14.386789,
          "velocity": 0.6299212598425197
        },
        {
          "duration": 0.23486629583333318,
          "durationTicks": 239,
          "midi": 55,
          "name": "G3",
          "ticks": 14880,
          "time": 14.622638,
          "velocity": 0.6299212598425197
        },
        {
          "duration": 0.23486629583333318,
          "durationTicks": 239,
          "midi": 59,
          "name": "B3",
          "ticks": 15120,
          "time": 14.858487,
          "velocity": 0.6299212598425197
        },
        {
          "duration": 0.23486629583333318,
          "durationTicks": 239,
          "midi": 55,
          "name": "G3",
          "ticks": 15120,
          "time": 14.858487,
          "velocity": 0.6299212598425197
        },
        {
          "duration": 0.23486629583333318,
          "durationTicks": 239,
          "midi": 52,
          "name": "E3",
          "ticks": 15120,
          "time": 14.858487,
          "velocity": 0.6299212598425197
        },
        {
          "duration": 0.23486629583333496,
          "durationTicks": 239,
          "midi": 52,
          "name": "E3",
          "ticks": 15360,
          "time": 15.094336,
          "velocity": 0.6299212598425197
        },
        {
          "duration": 0.23486629583333496,
          "durationTicks": 239,
          "midi": 59,
          "name": "B3",
          "ticks": 15600,
          "time": 15.330185,
          "velocity": 0.6299212598425197
        },
        {
          "duration": 0.23486629583333496,
          "durationTicks": 239,
          "midi": 55,
          "name": "G3",
          "ticks": 15600,
          "time": 15.330185,
          "velocity": 0.6299212598425197
        },
        {
          "duration": 0.23486629583333496,
          "durationTicks": 239,
          "midi": 52,
          "name": "E3",
          "ticks": 15600,
          "time": 15.330185,
          "velocity": 0.6299212598425197
        },
        {
          "duration": 0.23486629583333496,
          "durationTicks": 239,
          "midi": 55,
          "name": "G3",
          "ticks": 15840,
          "time": 15.566034,
          "velocity": 0.6299212598425197
        },
        {
          "duration": 0.23486629583333496,
          "durationTicks": 239,
          "midi": 62,
          "name": "D4",
          "ticks": 16080,
          "time": 15.801883,
          "velocity": 0.6299212598425197
        },
        {
          "duration": 0.23486629583333496,
          "durationTicks": 239,
          "midi": 59,
          "name": "B3",
          "ticks": 16080,
          "time": 15.801883,
          "velocity": 0.6299212598425197
        },
        {
          "duration": 0.23486629583333496,
          "durationTicks": 239,
          "midi": 55,
          "name": "G3",
          "ticks": 16080,
          "time": 15.801883,
          "velocity": 0.6299212598425197
        },
        {
          "duration": 0.2348662958333314,
          "durationTicks": 239,
          "midi": 50,
          "name": "D3",
          "ticks": 16320,
          "time": 16.037732000000002,
          "velocity": 0.6299212598425197
        },
        {
          "duration": 0.23486629583333496,
          "durationTicks": 239,
          "midi": 62,
          "name": "D4",
          "ticks": 16560,
          "time": 16.273581,
          "velocity": 0.6299212598425197
        },
        {
          "duration": 0.23486629583333496,
          "durationTicks": 239,
          "midi": 59,
          "name": "B3",
          "ticks": 16560,
          "time": 16.273581,
          "velocity": 0.6299212598425197
        },
        {
          "duration": 0.23486629583333496,
          "durationTicks": 239,
          "midi": 55,
          "name": "G3",
          "ticks": 16560,
          "time": 16.273581,
          "velocity": 0.6299212598425197
        },
        {
          "duration": 0.2348662958333314,
          "durationTicks": 239,
          "midi": 55,
          "name": "G3",
          "ticks": 16800,
          "time": 16.509430000000002,
          "velocity": 0.6299212598425197
        },
        {
          "duration": 0.23486629583333496,
          "durationTicks": 239,
          "midi": 62,
          "name": "D4",
          "ticks": 17040,
          "time": 16.745279,
          "velocity": 0.6299212598425197
        },
        {
          "duration": 0.23486629583333496,
          "durationTicks": 239,
          "midi": 59,
          "name": "B3",
          "ticks": 17040,
          "time": 16.745279,
          "velocity": 0.6299212598425197
        },
        {
          "duration": 0.23486629583333496,
          "durationTicks": 239,
          "midi": 55,
          "name": "G3",
          "ticks": 17040,
          "time": 16.745279,
          "velocity": 0.6299212598425197
        },
        {
          "duration": 0.2348662958333314,
          "durationTicks": 239,
          "midi": 50,
          "name": "D3",
          "ticks": 17280,
          "time": 16.981128000000002,
          "velocity": 0.6299212598425197
        },
        {
          "duration": 0.23486629583333496,
          "durationTicks": 239,
          "midi": 62,
          "name": "D4",
          "ticks": 17520,
          "time": 17.216977,
          "velocity": 0.6299212598425197
        },
        {
          "duration": 0.23486629583333496,
          "durationTicks": 239,
          "midi": 59,
          "name": "B3",
          "ticks": 17520,
          "time": 17.216977,
          "velocity": 0.6299212598425197
        },
        {
          "duration": 0.23486629583333496,
          "durationTicks": 239,
          "midi": 55,
          "name": "G3",
          "ticks": 17520,
          "time": 17.216977,
          "velocity": 0.6299212598425197
        },
        {
          "duration": 0.2348662958333314,
          "durationTicks": 239,
          "midi": 59,
          "name": "B3",
          "ticks": 17760,
          "time": 17.452826,
          "velocity": 0.6299212598425197
        },
        {
          "duration": 0.23486629583333496,
          "durationTicks": 239,
          "midi": 62,
          "name": "D4",
          "ticks": 18000,
          "time": 17.688675,
          "velocity": 0.6299212598425197
        },
        {
          "duration": 0.23486629583333496,
          "durationTicks": 239,
          "midi": 59,
          "name": "B3",
          "ticks": 18000,
          "time": 17.688675,
          "velocity": 0.6299212598425197
        },
        {
          "duration": 0.23486629583333496,
          "durationTicks": 239,
          "midi": 55,
          "name": "G3",
          "ticks": 18000,
          "time": 17.688675,
          "velocity": 0.6299212598425197
        },
        {
          "duration": 0.2348662958333314,
          "durationTicks": 239,
          "midi": 57,
          "name": "A3",
          "ticks": 18240,
          "time": 17.924524,
          "velocity": 0.6299212598425197
        },
        {
          "duration": 0.23486629583333496,
          "durationTicks": 239,
          "midi": 62,
          "name": "D4",
          "ticks": 18480,
          "time": 18.160373,
          "velocity": 0.6299212598425197
        },
        {
          "duration": 0.23486629583333496,
          "durationTicks": 239,
          "midi": 57,
          "name": "A3",
          "ticks": 18480,
          "time": 18.160373,
          "velocity": 0.6299212598425197
        },
        {
          "duration": 0.23486629583333496,
          "durationTicks": 239,
          "midi": 55,
          "name": "G3",
          "ticks": 18480,
          "time": 18.160373,
          "velocity": 0.6299212598425197
        },
        {
          "duration": 0.2348662958333314,
          "durationTicks": 239,
          "midi": 52,
          "name": "E3",
          "ticks": 18720,
          "time": 18.396222,
          "velocity": 0.6299212598425197
        },
        {
          "duration": 0.23486629583333496,
          "durationTicks": 239,
          "midi": 59,
          "name": "B3",
          "ticks": 18960,
          "time": 18.632071,
          "velocity": 0.6299212598425197
        },
        {
          "duration": 0.23486629583333496,
          "durationTicks": 239,
          "midi": 55,
          "name": "G3",
          "ticks": 18960,
          "time": 18.632071,
          "velocity": 0.6299212598425197
        },
        {
          "duration": 0.23486629583333496,
          "durationTicks": 239,
          "midi": 52,
          "name": "E3",
          "ticks": 18960,
          "time": 18.632071,
          "velocity": 0.6299212598425197
        },
        {
          "duration": 0.23486629583333496,
          "durationTicks": 239,
          "midi": 47,
          "name": "B2",
          "ticks": 18960,
          "time": 18.632071,
          "velocity": 0.6299212598425197
        },
        {
          "duration": 0.2348662958333314,
          "durationTicks": 239,
          "midi": 52,
          "name": "E3",
          "ticks": 19200,
          "time": 18.86792,
          "velocity": 0.6299212598425197
        },
        {
          "duration": 0.23486629583333496,
          "durationTicks": 239,
          "midi": 52,
          "name": "E3",
          "ticks": 19440,
          "time": 19.103769,
          "velocity": 0.6299212598425197
        },
        {
          "duration": 0.2348662958333314,
          "durationTicks": 239,
          "midi": 52,
          "name": "E3",
          "ticks": 19680,
          "time": 19.339618,
          "velocity": 0.6299212598425197
        },
        {
          "duration": 0.23486629583333496,
          "durationTicks": 239,
          "midi": 59,
          "name": "B3",
          "ticks": 19920,
          "time": 19.575467,
          "velocity": 0.6299212598425197
        },
        {
          "duration": 0.23486629583333496,
          "durationTicks": 239,
          "midi": 55,
          "name": "G3",
          "ticks": 19920,
          "time": 19.575467,
          "velocity": 0.6299212598425197
        },
        {
          "duration": 0.23486629583333496,
          "durationTicks": 239,
          "midi": 52,
          "name": "E3",
          "ticks": 19920,
          "time": 19.575467,
          "velocity": 0.6299212598425197
        },
        {
          "duration": 0.2348662958333314,
          "durationTicks": 239,
          "midi": 47,
          "name": "B2",
          "ticks": 20160,
          "time": 19.811316,
          "velocity": 0.6299212598425197
        },
        {
          "duration": 0.23486629583333496,
          "durationTicks": 239,
          "midi": 59,
          "name": "B3",
          "ticks": 20400,
          "time": 20.047165,
          "velocity": 0.6299212598425197
        },
        {
          "duration": 0.23486629583333496,
          "durationTicks": 239,
          "midi": 55,
          "name": "G3",
          "ticks": 20400,
          "time": 20.047165,
          "velocity": 0.6299212598425197
        },
        {
          "duration": 0.23486629583333496,
          "durationTicks": 239,
          "midi": 54,
          "name": "F#3",
          "ticks": 20400,
          "time": 20.047165,
          "velocity": 0.6299212598425197
        },
        {
          "duration": 0.23486629583333496,
          "durationTicks": 239,
          "midi": 52,
          "name": "E3",
          "ticks": 20400,
          "time": 20.047165,
          "velocity": 0.6299212598425197
        },
        {
          "duration": 0.2348662958333314,
          "durationTicks": 239,
          "midi": 52,
          "name": "E3",
          "ticks": 20640,
          "time": 20.283014,
          "velocity": 0.6299212598425197
        },
        {
          "duration": 0.23486629583333496,
          "durationTicks": 239,
          "midi": 59,
          "name": "B3",
          "ticks": 20880,
          "time": 20.518863,
          "velocity": 0.6299212598425197
        },
        {
          "duration": 0.23486629583333496,
          "durationTicks": 239,
          "midi": 55,
          "name": "G3",
          "ticks": 20880,
          "time": 20.518863,
          "velocity": 0.6299212598425197
        },
        {
          "duration": 0.23486629583333496,
          "durationTicks": 239,
          "midi": 52,
          "name": "E3",
          "ticks": 20880,
          "time": 20.518863,
          "velocity": 0.6299212598425197
        },
        {
          "duration": 0.2348662958333314,
          "durationTicks": 239,
          "midi": 47,
          "name": "B2",
          "ticks": 21120,
          "time": 20.754712,
          "velocity": 0.6299212598425197
        },
        {
          "duration": 0.23486629583333496,
          "durationTicks": 239,
          "midi": 59,
          "name": "B3",
          "ticks": 21360,
          "time": 20.990561,
          "velocity": 0.6299212598425197
        },
        {
          "duration": 0.23486629583333496,
          "durationTicks": 239,
          "midi": 55,
          "name": "G3",
          "ticks": 21360,
          "time": 20.990561,
          "velocity": 0.6299212598425197
        },
        {
          "duration": 0.23486629583333496,
          "durationTicks": 239,
          "midi": 54,
          "name": "F#3",
          "ticks": 21360,
          "time": 20.990561,
          "velocity": 0.6299212598425197
        },
        {
          "duration": 0.23486629583333496,
          "durationTicks": 239,
          "midi": 52,
          "name": "E3",
          "ticks": 21360,
          "time": 20.990561,
          "velocity": 0.6299212598425197
        },
        {
          "duration": 0.2348662958333314,
          "durationTicks": 239,
          "midi": 52,
          "name": "E3",
          "ticks": 21600,
          "time": 21.22641,
          "velocity": 0.6299212598425197
        },
        {
          "duration": 0.23486629583333496,
          "durationTicks": 239,
          "midi": 58,
          "name": "A#3",
          "ticks": 21840,
          "time": 21.462259,
          "velocity": 0.6299212598425197
        },
        {
          "duration": 0.23486629583333496,
          "durationTicks": 239,
          "midi": 55,
          "name": "G3",
          "ticks": 21840,
          "time": 21.462259,
          "velocity": 0.6299212598425197
        },
        {
          "duration": 0.23486629583333496,
          "durationTicks": 239,
          "midi": 52,
          "name": "E3",
          "ticks": 21840,
          "time": 21.462259,
          "velocity": 0.6299212598425197
        },
        {
          "duration": 0.23486629583333496,
          "durationTicks": 239,
          "midi": 47,
          "name": "B2",
          "ticks": 22080,
          "time": 21.698108,
          "velocity": 0.6299212598425197
        },
        {
          "duration": 0.23486629583333496,
          "durationTicks": 239,
          "midi": 58,
          "name": "A#3",
          "ticks": 22320,
          "time": 21.933957,
          "velocity": 0.6299212598425197
        },
        {
          "duration": 0.23486629583333496,
          "durationTicks": 239,
          "midi": 55,
          "name": "G3",
          "ticks": 22320,
          "time": 21.933957,
          "velocity": 0.6299212598425197
        },
        {
          "duration": 0.23486629583333496,
          "durationTicks": 239,
          "midi": 54,
          "name": "F#3",
          "ticks": 22320,
          "time": 21.933957,
          "velocity": 0.6299212598425197
        },
        {
          "duration": 0.23486629583333496,
          "durationTicks": 239,
          "midi": 52,
          "name": "E3",
          "ticks": 22320,
          "time": 21.933957,
          "velocity": 0.6299212598425197
        },
        {
          "duration": 0.23486629583333496,
          "durationTicks": 239,
          "midi": 59,
          "name": "B3",
          "ticks": 22560,
          "time": 22.169806,
          "velocity": 0.6299212598425197
        },
        {
          "duration": 0.23486629583333496,
          "durationTicks": 239,
          "midi": 54,
          "name": "F#3",
          "ticks": 22560,
          "time": 22.169806,
          "velocity": 0.6299212598425197
        },
        {
          "duration": 0.23486629583333496,
          "durationTicks": 239,
          "midi": 47,
          "name": "B2",
          "ticks": 22560,
          "time": 22.169806,
          "velocity": 0.6299212598425197
        },
        {
          "duration": 0.23486629583333496,
          "durationTicks": 239,
          "midi": 59,
          "name": "B3",
          "ticks": 22800,
          "time": 22.405655,
          "velocity": 0.6299212598425197
        },
        {
          "duration": 0.23486629583333496,
          "durationTicks": 239,
          "midi": 47,
          "name": "B2",
          "ticks": 22800,
          "time": 22.405655,
          "velocity": 0.6299212598425197
        },
        {
          "duration": 0.23486629583333496,
          "durationTicks": 239,
          "midi": 59,
          "name": "B3",
          "ticks": 23040,
          "time": 22.641504,
          "velocity": 0.6299212598425197
        },
        {
          "duration": 0.23486629583333496,
          "durationTicks": 239,
          "midi": 54,
          "name": "F#3",
          "ticks": 23040,
          "time": 22.641504,
          "velocity": 0.6299212598425197
        },
        {
          "duration": 0.23486629583333496,
          "durationTicks": 239,
          "midi": 47,
          "name": "B2",
          "ticks": 23040,
          "time": 22.641504,
          "velocity": 0.6299212598425197
        },
        {
          "duration": 0.23486629583333496,
          "durationTicks": 239,
          "midi": 52,
          "name": "E3",
          "ticks": 23520,
          "time": 23.113202,
          "velocity": 0.6299212598425197
        },
        {
          "duration": 0.23486629583333496,
          "durationTicks": 239,
          "midi": 59,
          "name": "B3",
          "ticks": 23760,
          "time": 23.349051,
          "velocity": 0.6299212598425197
        },
        {
          "duration": 0.23486629583333496,
          "durationTicks": 239,
          "midi": 55,
          "name": "G3",
          "ticks": 23760,
          "time": 23.349051,
          "velocity": 0.6299212598425197
        },
        {
          "duration": 0.23486629583333496,
          "durationTicks": 239,
          "midi": 52,
          "name": "E3",
          "ticks": 23760,
          "time": 23.349051,
          "velocity": 0.6299212598425197
        },
        {
          "duration": 0.23486629583333496,
          "durationTicks": 239,
          "midi": 47,
          "name": "B2",
          "ticks": 24000,
          "time": 23.5849,
          "velocity": 0.6299212598425197
        },
        {
          "duration": 0.23486629583333496,
          "durationTicks": 239,
          "midi": 59,
          "name": "B3",
          "ticks": 24240,
          "time": 23.820749,
          "velocity": 0.6299212598425197
        },
        {
          "duration": 0.23486629583333496,
          "durationTicks": 239,
          "midi": 55,
          "name": "G3",
          "ticks": 24240,
          "time": 23.820749,
          "velocity": 0.6299212598425197
        },
        {
          "duration": 0.23486629583333496,
          "durationTicks": 239,
          "midi": 54,
          "name": "F#3",
          "ticks": 24240,
          "time": 23.820749,
          "velocity": 0.6299212598425197
        },
        {
          "duration": 0.23486629583333496,
          "durationTicks": 239,
          "midi": 52,
          "name": "E3",
          "ticks": 24240,
          "time": 23.820749,
          "velocity": 0.6299212598425197
        },
        {
          "duration": 0.23486629583333496,
          "durationTicks": 239,
          "midi": 52,
          "name": "E3",
          "ticks": 24480,
          "time": 24.056598,
          "velocity": 0.6299212598425197
        },
        {
          "duration": 0.23486629583333496,
          "durationTicks": 239,
          "midi": 59,
          "name": "B3",
          "ticks": 24720,
          "time": 24.292447,
          "velocity": 0.6299212598425197
        },
        {
          "duration": 0.23486629583333496,
          "durationTicks": 239,
          "midi": 55,
          "name": "G3",
          "ticks": 24720,
          "time": 24.292447,
          "velocity": 0.6299212598425197
        },
        {
          "duration": 0.23486629583333496,
          "durationTicks": 239,
          "midi": 52,
          "name": "E3",
          "ticks": 24720,
          "time": 24.292447,
          "velocity": 0.6299212598425197
        },
        {
          "duration": 0.23486629583333496,
          "durationTicks": 239,
          "midi": 47,
          "name": "B2",
          "ticks": 24960,
          "time": 24.528296,
          "velocity": 0.6299212598425197
        },
        {
          "duration": 0.23486629583333496,
          "durationTicks": 239,
          "midi": 59,
          "name": "B3",
          "ticks": 25200,
          "time": 24.764145,
          "velocity": 0.6299212598425197
        },
        {
          "duration": 0.23486629583333496,
          "durationTicks": 239,
          "midi": 55,
          "name": "G3",
          "ticks": 25200,
          "time": 24.764145,
          "velocity": 0.6299212598425197
        },
        {
          "duration": 0.23486629583333496,
          "durationTicks": 239,
          "midi": 54,
          "name": "F#3",
          "ticks": 25200,
          "time": 24.764145,
          "velocity": 0.6299212598425197
        },
        {
          "duration": 0.23486629583333496,
          "durationTicks": 239,
          "midi": 52,
          "name": "E3",
          "ticks": 25200,
          "time": 24.764145,
          "velocity": 0.6299212598425197
        },
        {
          "duration": 0.23486629583333496,
          "durationTicks": 239,
          "midi": 52,
          "name": "E3",
          "ticks": 25440,
          "time": 24.999994,
          "velocity": 0.6299212598425197
        },
        {
          "duration": 0.23486629583333496,
          "durationTicks": 239,
          "midi": 59,
          "name": "B3",
          "ticks": 25680,
          "time": 25.235843,
          "velocity": 0.6299212598425197
        },
        {
          "duration": 0.23486629583333496,
          "durationTicks": 239,
          "midi": 55,
          "name": "G3",
          "ticks": 25680,
          "time": 25.235843,
          "velocity": 0.6299212598425197
        },
        {
          "duration": 0.23486629583333496,
          "durationTicks": 239,
          "midi": 52,
          "name": "E3",
          "ticks": 25680,
          "time": 25.235843,
          "velocity": 0.6299212598425197
        },
        {
          "duration": 0.23486629583333496,
          "durationTicks": 239,
          "midi": 47,
          "name": "B2",
          "ticks": 25920,
          "time": 25.471692,
          "velocity": 0.6299212598425197
        },
        {
          "duration": 0.23486629583333496,
          "durationTicks": 239,
          "midi": 59,
          "name": "B3",
          "ticks": 26160,
          "time": 25.707541,
          "velocity": 0.6299212598425197
        },
        {
          "duration": 0.23486629583333496,
          "durationTicks": 239,
          "midi": 55,
          "name": "G3",
          "ticks": 26160,
          "time": 25.707541,
          "velocity": 0.6299212598425197
        },
        {
          "duration": 0.23486629583333496,
          "durationTicks": 239,
          "midi": 52,
          "name": "E3",
          "ticks": 26160,
          "time": 25.707541,
          "velocity": 0.6299212598425197
        },
        {
          "duration": 0.23486629583333496,
          "durationTicks": 239,
          "midi": 59,
          "name": "B3",
          "ticks": 26400,
          "time": 25.94339,
          "velocity": 0.6299212598425197
        },
        {
          "duration": 0.23486629583333496,
          "durationTicks": 239,
          "midi": 53,
          "name": "F3",
          "ticks": 26400,
          "time": 25.94339,
          "velocity": 0.6299212598425197
        },
        {
          "duration": 0.23486629583333496,
          "durationTicks": 239,
          "midi": 52,
          "name": "E3",
          "ticks": 26400,
          "time": 25.94339,
          "velocity": 0.6299212598425197
        },
        {
          "duration": 0.23486629583333496,
          "durationTicks": 239,
          "midi": 59,
          "name": "B3",
          "ticks": 26640,
          "time": 26.179239,
          "velocity": 0.6299212598425197
        },
        {
          "duration": 0.23486629583333496,
          "durationTicks": 239,
          "midi": 53,
          "name": "F3",
          "ticks": 26640,
          "time": 26.179239,
          "velocity": 0.6299212598425197
        },
        {
          "duration": 0.23486629583333496,
          "durationTicks": 239,
          "midi": 52,
          "name": "E3",
          "ticks": 26640,
          "time": 26.179239,
          "velocity": 0.6299212598425197
        },
        {
          "duration": 0.23486629583333496,
          "durationTicks": 239,
          "midi": 59,
          "name": "B3",
          "ticks": 26880,
          "time": 26.415088,
          "velocity": 0.6299212598425197
        },
        {
          "duration": 0.23486629583333496,
          "durationTicks": 239,
          "midi": 53,
          "name": "F3",
          "ticks": 26880,
          "time": 26.415088,
          "velocity": 0.6299212598425197
        },
        {
          "duration": 0.23486629583333496,
          "durationTicks": 239,
          "midi": 52,
          "name": "E3",
          "ticks": 26880,
          "time": 26.415088,
          "velocity": 0.6299212598425197
        },
        {
          "duration": 0.23486629583333496,
          "durationTicks": 239,
          "midi": 52,
          "name": "E3",
          "ticks": 27360,
          "time": 26.886786,
          "velocity": 0.6299212598425197
        },
        {
          "duration": 0.23486629583333496,
          "durationTicks": 239,
          "midi": 59,
          "name": "B3",
          "ticks": 27600,
          "time": 27.122635,
          "velocity": 0.6299212598425197
        },
        {
          "duration": 0.23486629583333496,
          "durationTicks": 239,
          "midi": 55,
          "name": "G3",
          "ticks": 27600,
          "time": 27.122635,
          "velocity": 0.6299212598425197
        },
        {
          "duration": 0.23486629583333496,
          "durationTicks": 239,
          "midi": 52,
          "name": "E3",
          "ticks": 27600,
          "time": 27.122635,
          "velocity": 0.6299212598425197
        },
        {
          "duration": 0.23486629583333496,
          "durationTicks": 239,
          "midi": 47,
          "name": "B2",
          "ticks": 27840,
          "time": 27.358484,
          "velocity": 0.6299212598425197
        },
        {
          "duration": 0.23486629583333496,
          "durationTicks": 239,
          "midi": 59,
          "name": "B3",
          "ticks": 28080,
          "time": 27.594333,
          "velocity": 0.6299212598425197
        },
        {
          "duration": 0.23486629583333496,
          "durationTicks": 239,
          "midi": 55,
          "name": "G3",
          "ticks": 28080,
          "time": 27.594333,
          "velocity": 0.6299212598425197
        },
        {
          "duration": 0.23486629583333496,
          "durationTicks": 239,
          "midi": 54,
          "name": "F#3",
          "ticks": 28080,
          "time": 27.594333,
          "velocity": 0.6299212598425197
        },
        {
          "duration": 0.23486629583333496,
          "durationTicks": 239,
          "midi": 52,
          "name": "E3",
          "ticks": 28080,
          "time": 27.594333,
          "velocity": 0.6299212598425197
        },
        {
          "duration": 0.23486629583333496,
          "durationTicks": 239,
          "midi": 52,
          "name": "E3",
          "ticks": 28320,
          "time": 27.830182,
          "velocity": 0.6299212598425197
        },
        {
          "duration": 0.23486629583333496,
          "durationTicks": 239,
          "midi": 59,
          "name": "B3",
          "ticks": 28560,
          "time": 28.066031,
          "velocity": 0.6299212598425197
        },
        {
          "duration": 0.23486629583333496,
          "durationTicks": 239,
          "midi": 55,
          "name": "G3",
          "ticks": 28560,
          "time": 28.066031,
          "velocity": 0.6299212598425197
        },
        {
          "duration": 0.23486629583333496,
          "durationTicks": 239,
          "midi": 52,
          "name": "E3",
          "ticks": 28560,
          "time": 28.066031,
          "velocity": 0.6299212598425197
        },
        {
          "duration": 0.23486629583333496,
          "durationTicks": 239,
          "midi": 47,
          "name": "B2",
          "ticks": 28800,
          "time": 28.30188,
          "velocity": 0.6299212598425197
        },
        {
          "duration": 0.23486629583333496,
          "durationTicks": 239,
          "midi": 59,
          "name": "B3",
          "ticks": 29040,
          "time": 28.537729,
          "velocity": 0.6299212598425197
        },
        {
          "duration": 0.23486629583333496,
          "durationTicks": 239,
          "midi": 55,
          "name": "G3",
          "ticks": 29040,
          "time": 28.537729,
          "velocity": 0.6299212598425197
        },
        {
          "duration": 0.23486629583333496,
          "durationTicks": 239,
          "midi": 54,
          "name": "F#3",
          "ticks": 29040,
          "time": 28.537729,
          "velocity": 0.6299212598425197
        },
        {
          "duration": 0.23486629583333496,
          "durationTicks": 239,
          "midi": 52,
          "name": "E3",
          "ticks": 29040,
          "time": 28.537729,
          "velocity": 0.6299212598425197
        },
        {
          "duration": 0.23486629583333496,
          "durationTicks": 239,
          "midi": 58,
          "name": "A#3",
          "ticks": 29280,
          "time": 28.773578,
          "velocity": 0.6299212598425197
        },
        {
          "duration": 0.23486629583333496,
          "durationTicks": 239,
          "midi": 55,
          "name": "G3",
          "ticks": 29280,
          "time": 28.773578,
          "velocity": 0.6299212598425197
        },
        {
          "duration": 0.23486629583333496,
          "durationTicks": 239,
          "midi": 52,
          "name": "E3",
          "ticks": 29280,
          "time": 28.773578,
          "velocity": 0.6299212598425197
        },
        {
          "duration": 0.23486629583333496,
          "durationTicks": 239,
          "midi": 58,
          "name": "A#3",
          "ticks": 29520,
          "time": 29.009427,
          "velocity": 0.6299212598425197
        },
        {
          "duration": 0.23486629583333496,
          "durationTicks": 239,
          "midi": 55,
          "name": "G3",
          "ticks": 29520,
          "time": 29.009427,
          "velocity": 0.6299212598425197
        },
        {
          "duration": 0.23486629583333496,
          "durationTicks": 239,
          "midi": 52,
          "name": "E3",
          "ticks": 29520,
          "time": 29.009427,
          "velocity": 0.6299212598425197
        },
        {
          "duration": 0.23486629583333496,
          "durationTicks": 239,
          "midi": 58,
          "name": "A#3",
          "ticks": 29760,
          "time": 29.245276,
          "velocity": 0.6299212598425197
        },
        {
          "duration": 0.23486629583333496,
          "durationTicks": 239,
          "midi": 55,
          "name": "G3",
          "ticks": 29760,
          "time": 29.245276,
          "velocity": 0.6299212598425197
        },
        {
          "duration": 0.23486629583333496,
          "durationTicks": 239,
          "midi": 52,
          "name": "E3",
          "ticks": 29760,
          "time": 29.245276,
          "velocity": 0.6299212598425197
        },
        {
          "duration": 0.23486629583333496,
          "durationTicks": 239,
          "midi": 47,
          "name": "B2",
          "ticks": 29760,
          "time": 29.245276,
          "velocity": 0.6299212598425197
        },
        {
          "duration": 0.23486629583333496,
          "durationTicks": 239,
          "midi": 54,
          "name": "F#3",
          "ticks": 30000,
          "time": 29.481125,
          "velocity": 0.6299212598425197
        },
        {
          "duration": 0.23486629583333496,
          "durationTicks": 239,
          "midi": 52,
          "name": "E3",
          "ticks": 30240,
          "time": 29.716974,
          "velocity": 0.6299212598425197
        },
        {
          "duration": 0.23486629583333496,
          "durationTicks": 239,
          "midi": 52,
          "name": "E3",
          "ticks": 31200,
          "time": 30.66037,
          "velocity": 0.6299212598425197
        },
        {
          "duration": 0.2348662958333314,
          "durationTicks": 239,
          "midi": 59,
          "name": "B3",
          "ticks": 31440,
          "time": 30.896219000000002,
          "velocity": 0.6299212598425197
        },
        {
          "duration": 0.2348662958333314,
          "durationTicks": 239,
          "midi": 55,
          "name": "G3",
          "ticks": 31440,
          "time": 30.896219000000002,
          "velocity": 0.6299212598425197
        },
        {
          "duration": 0.2348662958333314,
          "durationTicks": 239,
          "midi": 52,
          "name": "E3",
          "ticks": 31440,
          "time": 30.896219000000002,
          "velocity": 0.6299212598425197
        },
        {
          "duration": 0.23486629583333496,
          "durationTicks": 239,
          "midi": 47,
          "name": "B2",
          "ticks": 31680,
          "time": 31.132068,
          "velocity": 0.6299212598425197
        },
        {
          "duration": 0.2348662958333314,
          "durationTicks": 239,
          "midi": 59,
          "name": "B3",
          "ticks": 31920,
          "time": 31.367917000000002,
          "velocity": 0.6299212598425197
        },
        {
          "duration": 0.2348662958333314,
          "durationTicks": 239,
          "midi": 55,
          "name": "G3",
          "ticks": 31920,
          "time": 31.367917000000002,
          "velocity": 0.6299212598425197
        },
        {
          "duration": 0.2348662958333314,
          "durationTicks": 239,
          "midi": 54,
          "name": "F#3",
          "ticks": 31920,
          "time": 31.367917000000002,
          "velocity": 0.6299212598425197
        },
        {
          "duration": 0.2348662958333314,
          "durationTicks": 239,
          "midi": 52,
          "name": "E3",
          "ticks": 31920,
          "time": 31.367917000000002,
          "velocity": 0.6299212598425197
        },
        {
          "duration": 0.23486629583333496,
          "durationTicks": 239,
          "midi": 52,
          "name": "E3",
          "ticks": 32160,
          "time": 31.603766,
          "velocity": 0.6299212598425197
        },
        {
          "duration": 0.23486629583333496,
          "durationTicks": 239,
          "midi": 59,
          "name": "B3",
          "ticks": 32400,
          "time": 31.839615000000002,
          "velocity": 0.6299212598425197
        },
        {
          "duration": 0.23486629583333496,
          "durationTicks": 239,
          "midi": 55,
          "name": "G3",
          "ticks": 32400,
          "time": 31.839615000000002,
          "velocity": 0.6299212598425197
        },
        {
          "duration": 0.23486629583333496,
          "durationTicks": 239,
          "midi": 52,
          "name": "E3",
          "ticks": 32400,
          "time": 31.839615000000002,
          "velocity": 0.6299212598425197
        },
        {
          "duration": 0.23486629583332785,
          "durationTicks": 239,
          "midi": 47,
          "name": "B2",
          "ticks": 32640,
          "time": 32.075464000000004,
          "velocity": 0.6299212598425197
        },
        {
          "duration": 0.23486629583333496,
          "durationTicks": 239,
          "midi": 59,
          "name": "B3",
          "ticks": 32880,
          "time": 32.311313,
          "velocity": 0.6299212598425197
        },
        {
          "duration": 0.23486629583333496,
          "durationTicks": 239,
          "midi": 55,
          "name": "G3",
          "ticks": 32880,
          "time": 32.311313,
          "velocity": 0.6299212598425197
        },
        {
          "duration": 0.23486629583333496,
          "durationTicks": 239,
          "midi": 54,
          "name": "F#3",
          "ticks": 32880,
          "time": 32.311313,
          "velocity": 0.6299212598425197
        },
        {
          "duration": 0.23486629583333496,
          "durationTicks": 239,
          "midi": 52,
          "name": "E3",
          "ticks": 32880,
          "time": 32.311313,
          "velocity": 0.6299212598425197
        },
        {
          "duration": 0.23486629583333496,
          "durationTicks": 239,
          "midi": 58,
          "name": "A#3",
          "ticks": 33120,
          "time": 32.547162,
          "velocity": 0.6299212598425197
        },
        {
          "duration": 0.23486629583333496,
          "durationTicks": 239,
          "midi": 55,
          "name": "G3",
          "ticks": 33120,
          "time": 32.547162,
          "velocity": 0.6299212598425197
        },
        {
          "duration": 0.23486629583333496,
          "durationTicks": 239,
          "midi": 52,
          "name": "E3",
          "ticks": 33120,
          "time": 32.547162,
          "velocity": 0.6299212598425197
        },
        {
          "duration": 0.23486629583333496,
          "durationTicks": 239,
          "midi": 58,
          "name": "A#3",
          "ticks": 33360,
          "time": 32.783011,
          "velocity": 0.6299212598425197
        },
        {
          "duration": 0.23486629583333496,
          "durationTicks": 239,
          "midi": 55,
          "name": "G3",
          "ticks": 33360,
          "time": 32.783011,
          "velocity": 0.6299212598425197
        },
        {
          "duration": 0.23486629583333496,
          "durationTicks": 239,
          "midi": 52,
          "name": "E3",
          "ticks": 33360,
          "time": 32.783011,
          "velocity": 0.6299212598425197
        },
        {
          "duration": 0.23486629583332785,
          "durationTicks": 239,
          "midi": 58,
          "name": "A#3",
          "ticks": 33600,
          "time": 33.018860000000004,
          "velocity": 0.6299212598425197
        },
        {
          "duration": 0.23486629583332785,
          "durationTicks": 239,
          "midi": 55,
          "name": "G3",
          "ticks": 33600,
          "time": 33.018860000000004,
          "velocity": 0.6299212598425197
        },
        {
          "duration": 0.23486629583332785,
          "durationTicks": 239,
          "midi": 52,
          "name": "E3",
          "ticks": 33600,
          "time": 33.018860000000004,
          "velocity": 0.6299212598425197
        },
        {
          "duration": 0.23486629583332785,
          "durationTicks": 239,
          "midi": 47,
          "name": "B2",
          "ticks": 33600,
          "time": 33.018860000000004,
          "velocity": 0.6299212598425197
        },
        {
          "duration": 0.23486629583333496,
          "durationTicks": 239,
          "midi": 54,
          "name": "F#3",
          "ticks": 33840,
          "time": 33.254709,
          "velocity": 0.6299212598425197
        },
        {
          "duration": 0.4707152958333367,
          "durationTicks": 479,
          "midi": 52,
          "name": "E3",
          "ticks": 34080,
          "time": 33.490558,
          "velocity": 0.6299212598425197
        },
        {
          "duration": 0.23486629583333496,
          "durationTicks": 239,
          "midi": 64,
          "name": "E4",
          "ticks": 34800,
          "time": 34.198105,
          "velocity": 0.6299212598425197
        },
        {
          "duration": 0.23486629583333496,
          "durationTicks": 239,
          "midi": 52,
          "name": "E3",
          "ticks": 35040,
          "time": 34.433954,
          "velocity": 0.6299212598425197
        },
        {
          "duration": 0.23486629583333496,
          "durationTicks": 239,
          "midi": 59,
          "name": "B3",
          "ticks": 35280,
          "time": 34.669803,
          "velocity": 0.6299212598425197
        },
        {
          "duration": 0.23486629583333496,
          "durationTicks": 239,
          "midi": 55,
          "name": "G3",
          "ticks": 35280,
          "time": 34.669803,
          "velocity": 0.6299212598425197
        },
        {
          "duration": 0.23486629583333496,
          "durationTicks": 239,
          "midi": 52,
          "name": "E3",
          "ticks": 35280,
          "time": 34.669803,
          "velocity": 0.6299212598425197
        },
        {
          "duration": 0.23486629583332785,
          "durationTicks": 239,
          "midi": 47,
          "name": "B2",
          "ticks": 35520,
          "time": 34.905652,
          "velocity": 0.6299212598425197
        },
        {
          "duration": 0.23486629583333496,
          "durationTicks": 239,
          "midi": 59,
          "name": "B3",
          "ticks": 35760,
          "time": 35.141501,
          "velocity": 0.6299212598425197
        },
        {
          "duration": 0.23486629583333496,
          "durationTicks": 239,
          "midi": 55,
          "name": "G3",
          "ticks": 35760,
          "time": 35.141501,
          "velocity": 0.6299212598425197
        },
        {
          "duration": 0.23486629583333496,
          "durationTicks": 239,
          "midi": 52,
          "name": "E3",
          "ticks": 35760,
          "time": 35.141501,
          "velocity": 0.6299212598425197
        },
        {
          "duration": 0.23486629583333496,
          "durationTicks": 239,
          "midi": 52,
          "name": "E3",
          "ticks": 36000,
          "time": 35.37735,
          "velocity": 0.6299212598425197
        },
        {
          "duration": 0.23486629583333496,
          "durationTicks": 239,
          "midi": 59,
          "name": "B3",
          "ticks": 36240,
          "time": 35.613199,
          "velocity": 0.6299212598425197
        },
        {
          "duration": 0.23486629583333496,
          "durationTicks": 239,
          "midi": 55,
          "name": "G3",
          "ticks": 36240,
          "time": 35.613199,
          "velocity": 0.6299212598425197
        },
        {
          "duration": 0.23486629583333496,
          "durationTicks": 239,
          "midi": 52,
          "name": "E3",
          "ticks": 36240,
          "time": 35.613199,
          "velocity": 0.6299212598425197
        },
        {
          "duration": 0.23486629583332785,
          "durationTicks": 239,
          "midi": 47,
          "name": "B2",
          "ticks": 36480,
          "time": 35.849048,
          "velocity": 0.6299212598425197
        },
        {
          "duration": 0.23486629583333496,
          "durationTicks": 239,
          "midi": 59,
          "name": "B3",
          "ticks": 36720,
          "time": 36.084897,
          "velocity": 0.6299212598425197
        },
        {
          "duration": 0.23486629583333496,
          "durationTicks": 239,
          "midi": 55,
          "name": "G3",
          "ticks": 36720,
          "time": 36.084897,
          "velocity": 0.6299212598425197
        },
        {
          "duration": 0.23486629583333496,
          "durationTicks": 239,
          "midi": 52,
          "name": "E3",
          "ticks": 36720,
          "time": 36.084897,
          "velocity": 0.6299212598425197
        },
        {
          "duration": 0.23486629583333496,
          "durationTicks": 239,
          "midi": 52,
          "name": "E3",
          "ticks": 36960,
          "time": 36.320746,
          "velocity": 0.6299212598425197
        },
        {
          "duration": 0.23486629583333496,
          "durationTicks": 239,
          "midi": 59,
          "name": "B3",
          "ticks": 37200,
          "time": 36.556595,
          "velocity": 0.6299212598425197
        },
        {
          "duration": 0.23486629583333496,
          "durationTicks": 239,
          "midi": 55,
          "name": "G3",
          "ticks": 37200,
          "time": 36.556595,
          "velocity": 0.6299212598425197
        },
        {
          "duration": 0.23486629583333496,
          "durationTicks": 239,
          "midi": 52,
          "name": "E3",
          "ticks": 37200,
          "time": 36.556595,
          "velocity": 0.6299212598425197
        },
        {
          "duration": 0.23486629583333496,
          "durationTicks": 239,
          "midi": 47,
          "name": "B2",
          "ticks": 37440,
          "time": 36.792444,
          "velocity": 0.6299212598425197
        },
        {
          "duration": 0.23486629583333496,
          "durationTicks": 239,
          "midi": 59,
          "name": "B3",
          "ticks": 37680,
          "time": 37.028293,
          "velocity": 0.6299212598425197
        },
        {
          "duration": 0.23486629583333496,
          "durationTicks": 239,
          "midi": 55,
          "name": "G3",
          "ticks": 37680,
          "time": 37.028293,
          "velocity": 0.6299212598425197
        },
        {
          "duration": 0.23486629583333496,
          "durationTicks": 239,
          "midi": 52,
          "name": "E3",
          "ticks": 37680,
          "time": 37.028293,
          "velocity": 0.6299212598425197
        },
        {
          "duration": 0.23486629583333496,
          "durationTicks": 239,
          "midi": 52,
          "name": "E3",
          "ticks": 37920,
          "time": 37.264142,
          "velocity": 0.6299212598425197
        },
        {
          "duration": 0.23486629583333496,
          "durationTicks": 239,
          "midi": 59,
          "name": "B3",
          "ticks": 38640,
          "time": 37.971689,
          "velocity": 0.6299212598425197
        },
        {
          "duration": 0.23486629583333496,
          "durationTicks": 239,
          "midi": 55,
          "name": "G3",
          "ticks": 38640,
          "time": 37.971689,
          "velocity": 0.6299212598425197
        },
        {
          "duration": 0.23486629583333496,
          "durationTicks": 239,
          "midi": 52,
          "name": "E3",
          "ticks": 38640,
          "time": 37.971689,
          "velocity": 0.6299212598425197
        },
        {
          "duration": 0.23486629583333496,
          "durationTicks": 239,
          "midi": 52,
          "name": "E3",
          "ticks": 38880,
          "time": 38.207538,
          "velocity": 0.6299212598425197
        },
        {
          "duration": 0.23486629583333496,
          "durationTicks": 239,
          "midi": 59,
          "name": "B3",
          "ticks": 39120,
          "time": 38.443387,
          "velocity": 0.6299212598425197
        },
        {
          "duration": 0.23486629583333496,
          "durationTicks": 239,
          "midi": 55,
          "name": "G3",
          "ticks": 39120,
          "time": 38.443387,
          "velocity": 0.6299212598425197
        },
        {
          "duration": 0.23486629583333496,
          "durationTicks": 239,
          "midi": 52,
          "name": "E3",
          "ticks": 39120,
          "time": 38.443387,
          "velocity": 0.6299212598425197
        },
        {
          "duration": 0.23486629583333496,
          "durationTicks": 239,
          "midi": 47,
          "name": "B2",
          "ticks": 39360,
          "time": 38.679236,
          "velocity": 0.6299212598425197
        },
        {
          "duration": 0.23486629583333496,
          "durationTicks": 239,
          "midi": 59,
          "name": "B3",
          "ticks": 39600,
          "time": 38.915085,
          "velocity": 0.6299212598425197
        },
        {
          "duration": 0.23486629583333496,
          "durationTicks": 239,
          "midi": 55,
          "name": "G3",
          "ticks": 39600,
          "time": 38.915085,
          "velocity": 0.6299212598425197
        },
        {
          "duration": 0.23486629583333496,
          "durationTicks": 239,
          "midi": 52,
          "name": "E3",
          "ticks": 39600,
          "time": 38.915085,
          "velocity": 0.6299212598425197
        },
        {
          "duration": 0.23486629583333496,
          "durationTicks": 239,
          "midi": 52,
          "name": "E3",
          "ticks": 39840,
          "time": 39.150934,
          "velocity": 0.6299212598425197
        },
        {
          "duration": 0.23486629583333496,
          "durationTicks": 239,
          "midi": 59,
          "name": "B3",
          "ticks": 40080,
          "time": 39.386783,
          "velocity": 0.6299212598425197
        },
        {
          "duration": 0.23486629583333496,
          "durationTicks": 239,
          "midi": 55,
          "name": "G3",
          "ticks": 40080,
          "time": 39.386783,
          "velocity": 0.6299212598425197
        },
        {
          "duration": 0.23486629583333496,
          "durationTicks": 239,
          "midi": 52,
          "name": "E3",
          "ticks": 40080,
          "time": 39.386783,
          "velocity": 0.6299212598425197
        },
        {
          "duration": 0.23486629583333496,
          "durationTicks": 239,
          "midi": 47,
          "name": "B2",
          "ticks": 40320,
          "time": 39.622632,
          "velocity": 0.6299212598425197
        },
        {
          "duration": 0.23486629583333496,
          "durationTicks": 239,
          "midi": 59,
          "name": "B3",
          "ticks": 40560,
          "time": 39.858481,
          "velocity": 0.6299212598425197
        },
        {
          "duration": 0.23486629583333496,
          "durationTicks": 239,
          "midi": 55,
          "name": "G3",
          "ticks": 40560,
          "time": 39.858481,
          "velocity": 0.6299212598425197
        },
        {
          "duration": 0.23486629583333496,
          "durationTicks": 239,
          "midi": 52,
          "name": "E3",
          "ticks": 40560,
          "time": 39.858481,
          "velocity": 0.6299212598425197
        },
        {
          "duration": 0.23486629583333496,
          "durationTicks": 239,
          "midi": 52,
          "name": "E3",
          "ticks": 40800,
          "time": 40.09433,
          "velocity": 0.6299212598425197
        },
        {
          "duration": 0.23486629583333496,
          "durationTicks": 239,
          "midi": 59,
          "name": "B3",
          "ticks": 41040,
          "time": 40.330179,
          "velocity": 0.6299212598425197
        },
        {
          "duration": 0.23486629583333496,
          "durationTicks": 239,
          "midi": 55,
          "name": "G3",
          "ticks": 41040,
          "time": 40.330179,
          "velocity": 0.6299212598425197
        },
        {
          "duration": 0.23486629583333496,
          "durationTicks": 239,
          "midi": 52,
          "name": "E3",
          "ticks": 41040,
          "time": 40.330179,
          "velocity": 0.6299212598425197
        },
        {
          "duration": 0.23486629583333496,
          "durationTicks": 239,
          "midi": 47,
          "name": "B2",
          "ticks": 41280,
          "time": 40.566028,
          "velocity": 0.6299212598425197
        },
        {
          "duration": 0.23486629583333496,
          "durationTicks": 239,
          "midi": 59,
          "name": "B3",
          "ticks": 41520,
          "time": 40.801877,
          "velocity": 0.6299212598425197
        },
        {
          "duration": 0.23486629583333496,
          "durationTicks": 239,
          "midi": 55,
          "name": "G3",
          "ticks": 41520,
          "time": 40.801877,
          "velocity": 0.6299212598425197
        },
        {
          "duration": 0.23486629583333496,
          "durationTicks": 239,
          "midi": 52,
          "name": "E3",
          "ticks": 41520,
          "time": 40.801877,
          "velocity": 0.6299212598425197
        },
        {
          "duration": 0.23486629583333496,
          "durationTicks": 239,
          "midi": 52,
          "name": "E3",
          "ticks": 41760,
          "time": 41.037726,
          "velocity": 0.6299212598425197
        },
        {
          "duration": 0.23486629583333496,
          "durationTicks": 239,
          "midi": 59,
          "name": "B3",
          "ticks": 42480,
          "time": 41.745273,
          "velocity": 0.6299212598425197
        },
        {
          "duration": 0.23486629583333496,
          "durationTicks": 239,
          "midi": 55,
          "name": "G3",
          "ticks": 42480,
          "time": 41.745273,
          "velocity": 0.6299212598425197
        },
        {
          "duration": 0.23486629583333496,
          "durationTicks": 239,
          "midi": 52,
          "name": "E3",
          "ticks": 42480,
          "time": 41.745273,
          "velocity": 0.6299212598425197
        },
        {
          "duration": 0.23486629583333496,
          "durationTicks": 239,
          "midi": 52,
          "name": "E3",
          "ticks": 42720,
          "time": 41.981122,
          "velocity": 0.6299212598425197
        },
        {
          "duration": 0.23486629583333496,
          "durationTicks": 239,
          "midi": 59,
          "name": "B3",
          "ticks": 42960,
          "time": 42.216971,
          "velocity": 0.6299212598425197
        },
        {
          "duration": 0.23486629583333496,
          "durationTicks": 239,
          "midi": 55,
          "name": "G3",
          "ticks": 42960,
          "time": 42.216971,
          "velocity": 0.6299212598425197
        },
        {
          "duration": 0.23486629583333496,
          "durationTicks": 239,
          "midi": 52,
          "name": "E3",
          "ticks": 42960,
          "time": 42.216971,
          "velocity": 0.6299212598425197
        },
        {
          "duration": 0.23486629583333496,
          "durationTicks": 239,
          "midi": 47,
          "name": "B2",
          "ticks": 43200,
          "time": 42.45282,
          "velocity": 0.6299212598425197
        },
        {
          "duration": 0.23486629583333496,
          "durationTicks": 239,
          "midi": 59,
          "name": "B3",
          "ticks": 43440,
          "time": 42.688669,
          "velocity": 0.6299212598425197
        },
        {
          "duration": 0.23486629583333496,
          "durationTicks": 239,
          "midi": 55,
          "name": "G3",
          "ticks": 43440,
          "time": 42.688669,
          "velocity": 0.6299212598425197
        },
        {
          "duration": 0.23486629583333496,
          "durationTicks": 239,
          "midi": 52,
          "name": "E3",
          "ticks": 43440,
          "time": 42.688669,
          "velocity": 0.6299212598425197
        },
        {
          "duration": 0.23486629583333496,
          "durationTicks": 239,
          "midi": 52,
          "name": "E3",
          "ticks": 43680,
          "time": 42.924518,
          "velocity": 0.6299212598425197
        },
        {
          "duration": 0.23486629583333496,
          "durationTicks": 239,
          "midi": 59,
          "name": "B3",
          "ticks": 43920,
          "time": 43.160367,
          "velocity": 0.6299212598425197
        },
        {
          "duration": 0.23486629583333496,
          "durationTicks": 239,
          "midi": 55,
          "name": "G3",
          "ticks": 43920,
          "time": 43.160367,
          "velocity": 0.6299212598425197
        },
        {
          "duration": 0.23486629583333496,
          "durationTicks": 239,
          "midi": 52,
          "name": "E3",
          "ticks": 43920,
          "time": 43.160367,
          "velocity": 0.6299212598425197
        },
        {
          "duration": 0.23486629583333496,
          "durationTicks": 239,
          "midi": 47,
          "name": "B2",
          "ticks": 44160,
          "time": 43.396216,
          "velocity": 0.6299212598425197
        },
        {
          "duration": 0.23486629583333496,
          "durationTicks": 239,
          "midi": 59,
          "name": "B3",
          "ticks": 44400,
          "time": 43.632065,
          "velocity": 0.6299212598425197
        },
        {
          "duration": 0.23486629583333496,
          "durationTicks": 239,
          "midi": 55,
          "name": "G3",
          "ticks": 44400,
          "time": 43.632065,
          "velocity": 0.6299212598425197
        },
        {
          "duration": 0.23486629583333496,
          "durationTicks": 239,
          "midi": 52,
          "name": "E3",
          "ticks": 44400,
          "time": 43.632065,
          "velocity": 0.6299212598425197
        },
        {
          "duration": 0.23486629583333496,
          "durationTicks": 239,
          "midi": 52,
          "name": "E3",
          "ticks": 44640,
          "time": 43.867914,
          "velocity": 0.6299212598425197
        },
        {
          "duration": 0.23486629583333496,
          "durationTicks": 239,
          "midi": 59,
          "name": "B3",
          "ticks": 44880,
          "time": 44.103763,
          "velocity": 0.6299212598425197
        },
        {
          "duration": 0.23486629583333496,
          "durationTicks": 239,
          "midi": 55,
          "name": "G3",
          "ticks": 44880,
          "time": 44.103763,
          "velocity": 0.6299212598425197
        },
        {
          "duration": 0.23486629583333496,
          "durationTicks": 239,
          "midi": 52,
          "name": "E3",
          "ticks": 44880,
          "time": 44.103763,
          "velocity": 0.6299212598425197
        },
        {
          "duration": 0.23486629583333496,
          "durationTicks": 239,
          "midi": 47,
          "name": "B2",
          "ticks": 45120,
          "time": 44.339612,
          "velocity": 0.6299212598425197
        },
        {
          "duration": 0.23486629583333496,
          "durationTicks": 239,
          "midi": 59,
          "name": "B3",
          "ticks": 45360,
          "time": 44.575461,
          "velocity": 0.6299212598425197
        },
        {
          "duration": 0.23486629583333496,
          "durationTicks": 239,
          "midi": 55,
          "name": "G3",
          "ticks": 45360,
          "time": 44.575461,
          "velocity": 0.6299212598425197
        },
        {
          "duration": 0.23486629583333496,
          "durationTicks": 239,
          "midi": 52,
          "name": "E3",
          "ticks": 45360,
          "time": 44.575461,
          "velocity": 0.6299212598425197
        },
        {
          "duration": 0.23486629583333496,
          "durationTicks": 239,
          "midi": 59,
          "name": "B3",
          "ticks": 45600,
          "time": 44.81131,
          "velocity": 0.6299212598425197
        },
        {
          "duration": 0.23486629583333496,
          "durationTicks": 239,
          "midi": 55,
          "name": "G3",
          "ticks": 45600,
          "time": 44.81131,
          "velocity": 0.6299212598425197
        },
        {
          "duration": 0.23486629583333496,
          "durationTicks": 239,
          "midi": 52,
          "name": "E3",
          "ticks": 45600,
          "time": 44.81131,
          "velocity": 0.6299212598425197
        },
        {
          "duration": 0.23486629583333496,
          "durationTicks": 239,
          "midi": 59,
          "name": "B3",
          "ticks": 45840,
          "time": 45.047159,
          "velocity": 0.6299212598425197
        },
        {
          "duration": 0.23486629583333496,
          "durationTicks": 239,
          "midi": 55,
          "name": "G3",
          "ticks": 45840,
          "time": 45.047159,
          "velocity": 0.6299212598425197
        },
        {
          "duration": 0.23486629583333496,
          "durationTicks": 239,
          "midi": 52,
          "name": "E3",
          "ticks": 45840,
          "time": 45.047159,
          "velocity": 0.6299212598425197
        },
        {
          "duration": 0.23486629583333496,
          "durationTicks": 239,
          "midi": 47,
          "name": "B2",
          "ticks": 46080,
          "time": 45.283008,
          "velocity": 0.6299212598425197
        },
        {
          "duration": 0.23486629583332785,
          "durationTicks": 239,
          "midi": 59,
          "name": "B3",
          "ticks": 46320,
          "time": 45.518857000000004,
          "velocity": 0.6299212598425197
        },
        {
          "duration": 0.23486629583332785,
          "durationTicks": 239,
          "midi": 55,
          "name": "G3",
          "ticks": 46320,
          "time": 45.518857000000004,
          "velocity": 0.6299212598425197
        },
        {
          "duration": 0.23486629583332785,
          "durationTicks": 239,
          "midi": 52,
          "name": "E3",
          "ticks": 46320,
          "time": 45.518857000000004,
          "velocity": 0.6299212598425197
        },
        {
          "duration": 0.23486629583333496,
          "durationTicks": 239,
          "midi": 52,
          "name": "E3",
          "ticks": 46560,
          "time": 45.754706,
          "velocity": 0.6299212598425197
        },
        {
          "duration": 0.23486629583333496,
          "durationTicks": 239,
          "midi": 59,
          "name": "B3",
          "ticks": 46800,
          "time": 45.990555,
          "velocity": 0.6299212598425197
        },
        {
          "duration": 0.23486629583333496,
          "durationTicks": 239,
          "midi": 55,
          "name": "G3",
          "ticks": 46800,
          "time": 45.990555,
          "velocity": 0.6299212598425197
        },
        {
          "duration": 0.23486629583333496,
          "durationTicks": 239,
          "midi": 52,
          "name": "E3",
          "ticks": 46800,
          "time": 45.990555,
          "velocity": 0.6299212598425197
        },
        {
          "duration": 0.23486629583333496,
          "durationTicks": 239,
          "midi": 47,
          "name": "B2",
          "ticks": 47040,
          "time": 46.226404,
          "velocity": 0.6299212598425197
        },
        {
          "duration": 0.23486629583332785,
          "durationTicks": 239,
          "midi": 59,
          "name": "B3",
          "ticks": 47280,
          "time": 46.462253000000004,
          "velocity": 0.6299212598425197
        },
        {
          "duration": 0.23486629583332785,
          "durationTicks": 239,
          "midi": 55,
          "name": "G3",
          "ticks": 47280,
          "time": 46.462253000000004,
          "velocity": 0.6299212598425197
        },
        {
          "duration": 0.23486629583332785,
          "durationTicks": 239,
          "midi": 52,
          "name": "E3",
          "ticks": 47280,
          "time": 46.462253000000004,
          "velocity": 0.6299212598425197
        },
        {
          "duration": 0.23486629583333496,
          "durationTicks": 239,
          "midi": 52,
          "name": "E3",
          "ticks": 47520,
          "time": 46.698102,
          "velocity": 0.6299212598425197
        },
        {
          "duration": 0.23486629583333496,
          "durationTicks": 239,
          "midi": 59,
          "name": "B3",
          "ticks": 47760,
          "time": 46.933951,
          "velocity": 0.6299212598425197
        },
        {
          "duration": 0.23486629583333496,
          "durationTicks": 239,
          "midi": 55,
          "name": "G3",
          "ticks": 47760,
          "time": 46.933951,
          "velocity": 0.6299212598425197
        },
        {
          "duration": 0.23486629583333496,
          "durationTicks": 239,
          "midi": 52,
          "name": "E3",
          "ticks": 47760,
          "time": 46.933951,
          "velocity": 0.6299212598425197
        },
        {
          "duration": 0.23486629583333496,
          "durationTicks": 239,
          "midi": 47,
          "name": "B2",
          "ticks": 48000,
          "time": 47.1698,
          "velocity": 0.6299212598425197
        },
        {
          "duration": 0.23486629583332785,
          "durationTicks": 239,
          "midi": 59,
          "name": "B3",
          "ticks": 48240,
          "time": 47.405649000000004,
          "velocity": 0.6299212598425197
        },
        {
          "duration": 0.23486629583332785,
          "durationTicks": 239,
          "midi": 55,
          "name": "G3",
          "ticks": 48240,
          "time": 47.405649000000004,
          "velocity": 0.6299212598425197
        },
        {
          "duration": 0.23486629583332785,
          "durationTicks": 239,
          "midi": 52,
          "name": "E3",
          "ticks": 48240,
          "time": 47.405649000000004,
          "velocity": 0.6299212598425197
        },
        {
          "duration": 0.23486629583333496,
          "durationTicks": 239,
          "midi": 52,
          "name": "E3",
          "ticks": 48480,
          "time": 47.641498,
          "velocity": 0.6299212598425197
        },
        {
          "duration": 0.23486629583333496,
          "durationTicks": 239,
          "midi": 59,
          "name": "B3",
          "ticks": 48720,
          "time": 47.877347,
          "velocity": 0.6299212598425197
        },
        {
          "duration": 0.23486629583333496,
          "durationTicks": 239,
          "midi": 55,
          "name": "G3",
          "ticks": 48720,
          "time": 47.877347,
          "velocity": 0.6299212598425197
        },
        {
          "duration": 0.23486629583333496,
          "durationTicks": 239,
          "midi": 52,
          "name": "E3",
          "ticks": 48720,
          "time": 47.877347,
          "velocity": 0.6299212598425197
        },
        {
          "duration": 0.23486629583333496,
          "durationTicks": 239,
          "midi": 47,
          "name": "B2",
          "ticks": 48960,
          "time": 48.113196,
          "velocity": 0.6299212598425197
        },
        {
          "duration": 0.23486629583332785,
          "durationTicks": 239,
          "midi": 59,
          "name": "B3",
          "ticks": 49200,
          "time": 48.349045000000004,
          "velocity": 0.6299212598425197
        },
        {
          "duration": 0.23486629583332785,
          "durationTicks": 239,
          "midi": 55,
          "name": "G3",
          "ticks": 49200,
          "time": 48.349045000000004,
          "velocity": 0.6299212598425197
        },
        {
          "duration": 0.23486629583332785,
          "durationTicks": 239,
          "midi": 52,
          "name": "E3",
          "ticks": 49200,
          "time": 48.349045000000004,
          "velocity": 0.6299212598425197
        },
        {
          "duration": 0.23486629583333496,
          "durationTicks": 239,
          "midi": 52,
          "name": "E3",
          "ticks": 49440,
          "time": 48.584894,
          "velocity": 0.6299212598425197
        },
        {
          "duration": 0.23486629583333496,
          "durationTicks": 239,
          "midi": 59,
          "name": "B3",
          "ticks": 49680,
          "time": 48.820743,
          "velocity": 0.6299212598425197
        },
        {
          "duration": 0.23486629583333496,
          "durationTicks": 239,
          "midi": 55,
          "name": "G3",
          "ticks": 49680,
          "time": 48.820743,
          "velocity": 0.6299212598425197
        },
        {
          "duration": 0.23486629583333496,
          "durationTicks": 239,
          "midi": 52,
          "name": "E3",
          "ticks": 49680,
          "time": 48.820743,
          "velocity": 0.6299212598425197
        },
        {
          "duration": 0.23486629583333496,
          "durationTicks": 239,
          "midi": 47,
          "name": "B2",
          "ticks": 49920,
          "time": 49.056592,
          "velocity": 0.6299212598425197
        },
        {
          "duration": 0.11694179583333408,
          "durationTicks": 119,
          "midi": 50,
          "name": "D3",
          "ticks": 50160,
          "time": 49.292441000000004,
          "velocity": 0.6299212598425197
        },
        {
          "duration": 0.11694179583333408,
          "durationTicks": 119,
          "midi": 52,
          "name": "E3",
          "ticks": 50280,
          "time": 49.4103655,
          "velocity": 0.6299212598425197
        },
        {
          "duration": 0.23486629583333496,
          "durationTicks": 239,
          "midi": 55,
          "name": "G3",
          "ticks": 50400,
          "time": 49.52829,
          "velocity": 0.6299212598425197
        },
        {
          "duration": 0.23486629583333496,
          "durationTicks": 239,
          "midi": 62,
          "name": "D4",
          "ticks": 50640,
          "time": 49.764139,
          "velocity": 0.6299212598425197
        },
        {
          "duration": 0.23486629583333496,
          "durationTicks": 239,
          "midi": 59,
          "name": "B3",
          "ticks": 50640,
          "time": 49.764139,
          "velocity": 0.6299212598425197
        },
        {
          "duration": 0.23486629583333496,
          "durationTicks": 239,
          "midi": 55,
          "name": "G3",
          "ticks": 50640,
          "time": 49.764139,
          "velocity": 0.6299212598425197
        },
        {
          "duration": 0.23486629583333496,
          "durationTicks": 239,
          "midi": 50,
          "name": "D3",
          "ticks": 50880,
          "time": 49.999988,
          "velocity": 0.6299212598425197
        },
        {
          "duration": 0.23486629583332785,
          "durationTicks": 239,
          "midi": 62,
          "name": "D4",
          "ticks": 51120,
          "time": 50.235837000000004,
          "velocity": 0.6299212598425197
        },
        {
          "duration": 0.23486629583332785,
          "durationTicks": 239,
          "midi": 59,
          "name": "B3",
          "ticks": 51120,
          "time": 50.235837000000004,
          "velocity": 0.6299212598425197
        },
        {
          "duration": 0.23486629583332785,
          "durationTicks": 239,
          "midi": 55,
          "name": "G3",
          "ticks": 51120,
          "time": 50.235837000000004,
          "velocity": 0.6299212598425197
        },
        {
          "duration": 0.23486629583333496,
          "durationTicks": 239,
          "midi": 55,
          "name": "G3",
          "ticks": 51360,
          "time": 50.471686,
          "velocity": 0.6299212598425197
        },
        {
          "duration": 0.23486629583333496,
          "durationTicks": 239,
          "midi": 62,
          "name": "D4",
          "ticks": 51600,
          "time": 50.707535,
          "velocity": 0.6299212598425197
        },
        {
          "duration": 0.23486629583333496,
          "durationTicks": 239,
          "midi": 59,
          "name": "B3",
          "ticks": 51600,
          "time": 50.707535,
          "velocity": 0.6299212598425197
        },
        {
          "duration": 0.23486629583333496,
          "durationTicks": 239,
          "midi": 55,
          "name": "G3",
          "ticks": 51600,
          "time": 50.707535,
          "velocity": 0.6299212598425197
        },
        {
          "duration": 0.23486629583333496,
          "durationTicks": 239,
          "midi": 50,
          "name": "D3",
          "ticks": 51840,
          "time": 50.943384,
          "velocity": 0.6299212598425197
        },
        {
          "duration": 0.23486629583332785,
          "durationTicks": 239,
          "midi": 62,
          "name": "D4",
          "ticks": 52080,
          "time": 51.179233,
          "velocity": 0.6299212598425197
        },
        {
          "duration": 0.23486629583332785,
          "durationTicks": 239,
          "midi": 59,
          "name": "B3",
          "ticks": 52080,
          "time": 51.179233,
          "velocity": 0.6299212598425197
        },
        {
          "duration": 0.23486629583332785,
          "durationTicks": 239,
          "midi": 55,
          "name": "G3",
          "ticks": 52080,
          "time": 51.179233,
          "velocity": 0.6299212598425197
        },
        {
          "duration": 0.23486629583333496,
          "durationTicks": 239,
          "midi": 55,
          "name": "G3",
          "ticks": 52320,
          "time": 51.415082,
          "velocity": 0.6299212598425197
        },
        {
          "duration": 0.23486629583333496,
          "durationTicks": 239,
          "midi": 62,
          "name": "D4",
          "ticks": 52560,
          "time": 51.650931,
          "velocity": 0.6299212598425197
        },
        {
          "duration": 0.23486629583333496,
          "durationTicks": 239,
          "midi": 59,
          "name": "B3",
          "ticks": 52560,
          "time": 51.650931,
          "velocity": 0.6299212598425197
        },
        {
          "duration": 0.23486629583333496,
          "durationTicks": 239,
          "midi": 55,
          "name": "G3",
          "ticks": 52560,
          "time": 51.650931,
          "velocity": 0.6299212598425197
        },
        {
          "duration": 0.23486629583333496,
          "durationTicks": 239,
          "midi": 50,
          "name": "D3",
          "ticks": 52800,
          "time": 51.88678,
          "velocity": 0.6299212598425197
        },
        {
          "duration": 0.23486629583333496,
          "durationTicks": 239,
          "midi": 62,
          "name": "D4",
          "ticks": 53040,
          "time": 52.122629,
          "velocity": 0.6299212598425197
        },
        {
          "duration": 0.23486629583333496,
          "durationTicks": 239,
          "midi": 59,
          "name": "B3",
          "ticks": 53040,
          "time": 52.122629,
          "velocity": 0.6299212598425197
        },
        {
          "duration": 0.23486629583333496,
          "durationTicks": 239,
          "midi": 55,
          "name": "G3",
          "ticks": 53040,
          "time": 52.122629,
          "velocity": 0.6299212598425197
        },
        {
          "duration": 0.23486629583333496,
          "durationTicks": 239,
          "midi": 55,
          "name": "G3",
          "ticks": 53280,
          "time": 52.358478,
          "velocity": 0.6299212598425197
        },
        {
          "duration": 0.23486629583333496,
          "durationTicks": 239,
          "midi": 62,
          "name": "D4",
          "ticks": 53520,
          "time": 52.594327,
          "velocity": 0.6299212598425197
        },
        {
          "duration": 0.23486629583333496,
          "durationTicks": 239,
          "midi": 59,
          "name": "B3",
          "ticks": 53520,
          "time": 52.594327,
          "velocity": 0.6299212598425197
        },
        {
          "duration": 0.23486629583333496,
          "durationTicks": 239,
          "midi": 55,
          "name": "G3",
          "ticks": 53520,
          "time": 52.594327,
          "velocity": 0.6299212598425197
        },
        {
          "duration": 0.23486629583333496,
          "durationTicks": 239,
          "midi": 54,
          "name": "F#3",
          "ticks": 53760,
          "time": 52.830176,
          "velocity": 0.6299212598425197
        },
        {
          "duration": 0.23486629583333496,
          "durationTicks": 239,
          "midi": 62,
          "name": "D4",
          "ticks": 54000,
          "time": 53.066025,
          "velocity": 0.6299212598425197
        },
        {
          "duration": 0.23486629583333496,
          "durationTicks": 239,
          "midi": 59,
          "name": "B3",
          "ticks": 54000,
          "time": 53.066025,
          "velocity": 0.6299212598425197
        },
        {
          "duration": 0.23486629583333496,
          "durationTicks": 239,
          "midi": 55,
          "name": "G3",
          "ticks": 54000,
          "time": 53.066025,
          "velocity": 0.6299212598425197
        },
        {
          "duration": 0.23486629583333496,
          "durationTicks": 239,
          "midi": 52,
          "name": "E3",
          "ticks": 54240,
          "time": 53.301874,
          "velocity": 0.6299212598425197
        },
        {
          "duration": 0.23486629583333496,
          "durationTicks": 239,
          "midi": 59,
          "name": "B3",
          "ticks": 54480,
          "time": 53.537723,
          "velocity": 0.6299212598425197
        },
        {
          "duration": 0.23486629583333496,
          "durationTicks": 239,
          "midi": 55,
          "name": "G3",
          "ticks": 54480,
          "time": 53.537723,
          "velocity": 0.6299212598425197
        },
        {
          "duration": 0.23486629583333496,
          "durationTicks": 239,
          "midi": 52,
          "name": "E3",
          "ticks": 54480,
          "time": 53.537723,
          "velocity": 0.6299212598425197
        },
        {
          "duration": 0.23486629583333496,
          "durationTicks": 239,
          "midi": 47,
          "name": "B2",
          "ticks": 54720,
          "time": 53.773572,
          "velocity": 0.6299212598425197
        },
        {
          "duration": 0.23486629583333496,
          "durationTicks": 239,
          "midi": 59,
          "name": "B3",
          "ticks": 54960,
          "time": 54.009421,
          "velocity": 0.6299212598425197
        },
        {
          "duration": 0.23486629583333496,
          "durationTicks": 239,
          "midi": 55,
          "name": "G3",
          "ticks": 54960,
          "time": 54.009421,
          "velocity": 0.6299212598425197
        },
        {
          "duration": 0.23486629583333496,
          "durationTicks": 239,
          "midi": 52,
          "name": "E3",
          "ticks": 54960,
          "time": 54.009421,
          "velocity": 0.6299212598425197
        },
        {
          "duration": 0.23486629583333496,
          "durationTicks": 239,
          "midi": 52,
          "name": "E3",
          "ticks": 55200,
          "time": 54.24527,
          "velocity": 0.6299212598425197
        },
        {
          "duration": 0.23486629583333496,
          "durationTicks": 239,
          "midi": 59,
          "name": "B3",
          "ticks": 55440,
          "time": 54.481119,
          "velocity": 0.6299212598425197
        },
        {
          "duration": 0.23486629583333496,
          "durationTicks": 239,
          "midi": 55,
          "name": "G3",
          "ticks": 55440,
          "time": 54.481119,
          "velocity": 0.6299212598425197
        },
        {
          "duration": 0.23486629583333496,
          "durationTicks": 239,
          "midi": 52,
          "name": "E3",
          "ticks": 55440,
          "time": 54.481119,
          "velocity": 0.6299212598425197
        },
        {
          "duration": 0.23486629583333496,
          "durationTicks": 239,
          "midi": 47,
          "name": "B2",
          "ticks": 55680,
          "time": 54.716968,
          "velocity": 0.6299212598425197
        },
        {
          "duration": 0.23486629583333496,
          "durationTicks": 239,
          "midi": 59,
          "name": "B3",
          "ticks": 55920,
          "time": 54.952817,
          "velocity": 0.6299212598425197
        },
        {
          "duration": 0.23486629583333496,
          "durationTicks": 239,
          "midi": 55,
          "name": "G3",
          "ticks": 55920,
          "time": 54.952817,
          "velocity": 0.6299212598425197
        },
        {
          "duration": 0.23486629583333496,
          "durationTicks": 239,
          "midi": 52,
          "name": "E3",
          "ticks": 55920,
          "time": 54.952817,
          "velocity": 0.6299212598425197
        },
        {
          "duration": 0.23486629583333496,
          "durationTicks": 239,
          "midi": 52,
          "name": "E3",
          "ticks": 56160,
          "time": 55.188666,
          "velocity": 0.6299212598425197
        },
        {
          "duration": 0.23486629583333496,
          "durationTicks": 239,
          "midi": 59,
          "name": "B3",
          "ticks": 56400,
          "time": 55.424515,
          "velocity": 0.6299212598425197
        },
        {
          "duration": 0.23486629583333496,
          "durationTicks": 239,
          "midi": 55,
          "name": "G3",
          "ticks": 56400,
          "time": 55.424515,
          "velocity": 0.6299212598425197
        },
        {
          "duration": 0.23486629583333496,
          "durationTicks": 239,
          "midi": 52,
          "name": "E3",
          "ticks": 56400,
          "time": 55.424515,
          "velocity": 0.6299212598425197
        },
        {
          "duration": 0.23486629583333496,
          "durationTicks": 239,
          "midi": 47,
          "name": "B2",
          "ticks": 56640,
          "time": 55.660364,
          "velocity": 0.6299212598425197
        },
        {
          "duration": 0.23486629583333496,
          "durationTicks": 239,
          "midi": 59,
          "name": "B3",
          "ticks": 56880,
          "time": 55.896213,
          "velocity": 0.6299212598425197
        },
        {
          "duration": 0.23486629583333496,
          "durationTicks": 239,
          "midi": 55,
          "name": "G3",
          "ticks": 56880,
          "time": 55.896213,
          "velocity": 0.6299212598425197
        },
        {
          "duration": 0.23486629583333496,
          "durationTicks": 239,
          "midi": 52,
          "name": "E3",
          "ticks": 56880,
          "time": 55.896213,
          "velocity": 0.6299212598425197
        },
        {
          "duration": 0.23486629583333496,
          "durationTicks": 239,
          "midi": 52,
          "name": "E3",
          "ticks": 57120,
          "time": 56.132062,
          "velocity": 0.6299212598425197
        },
        {
          "duration": 0.23486629583333496,
          "durationTicks": 239,
          "midi": 59,
          "name": "B3",
          "ticks": 58320,
          "time": 57.311307,
          "velocity": 0.6299212598425197
        },
        {
          "duration": 0.23486629583333496,
          "durationTicks": 239,
          "midi": 55,
          "name": "G3",
          "ticks": 58320,
          "time": 57.311307,
          "velocity": 0.6299212598425197
        },
        {
          "duration": 0.23486629583333496,
          "durationTicks": 239,
          "midi": 52,
          "name": "E3",
          "ticks": 58320,
          "time": 57.311307,
          "velocity": 0.6299212598425197
        },
        {
          "duration": 0.23486629583333496,
          "durationTicks": 239,
          "midi": 59,
          "name": "B3",
          "ticks": 58800,
          "time": 57.783005,
          "velocity": 0.6299212598425197
        },
        {
          "duration": 0.23486629583333496,
          "durationTicks": 239,
          "midi": 55,
          "name": "G3",
          "ticks": 58800,
          "time": 57.783005,
          "velocity": 0.6299212598425197
        },
        {
          "duration": 0.23486629583333496,
          "durationTicks": 239,
          "midi": 52,
          "name": "E3",
          "ticks": 58800,
          "time": 57.783005,
          "velocity": 0.6299212598425197
        },
        {
          "duration": 0.23486629583333496,
          "durationTicks": 239,
          "midi": 59,
          "name": "B3",
          "ticks": 59280,
          "time": 58.254703,
          "velocity": 0.6299212598425197
        },
        {
          "duration": 0.23486629583333496,
          "durationTicks": 239,
          "midi": 55,
          "name": "G3",
          "ticks": 59280,
          "time": 58.254703,
          "velocity": 0.6299212598425197
        },
        {
          "duration": 0.23486629583333496,
          "durationTicks": 239,
          "midi": 52,
          "name": "E3",
          "ticks": 59280,
          "time": 58.254703,
          "velocity": 0.6299212598425197
        },
        {
          "duration": 0.23486629583333496,
          "durationTicks": 239,
          "midi": 59,
          "name": "B3",
          "ticks": 59760,
          "time": 58.726401,
          "velocity": 0.6299212598425197
        },
        {
          "duration": 0.23486629583333496,
          "durationTicks": 239,
          "midi": 55,
          "name": "G3",
          "ticks": 59760,
          "time": 58.726401,
          "velocity": 0.6299212598425197
        },
        {
          "duration": 0.23486629583333496,
          "durationTicks": 239,
          "midi": 52,
          "name": "E3",
          "ticks": 59760,
          "time": 58.726401,
          "velocity": 0.6299212598425197
        },
        {
          "duration": 0.23486629583333496,
          "durationTicks": 239,
          "midi": 59,
          "name": "B3",
          "ticks": 60240,
          "time": 59.198099,
          "velocity": 0.6299212598425197
        },
        {
          "duration": 0.23486629583333496,
          "durationTicks": 239,
          "midi": 55,
          "name": "G3",
          "ticks": 60240,
          "time": 59.198099,
          "velocity": 0.6299212598425197
        },
        {
          "duration": 0.23486629583333496,
          "durationTicks": 239,
          "midi": 52,
          "name": "E3",
          "ticks": 60240,
          "time": 59.198099,
          "velocity": 0.6299212598425197
        },
        {
          "duration": 0.23486629583333496,
          "durationTicks": 239,
          "midi": 59,
          "name": "B3",
          "ticks": 60720,
          "time": 59.669797,
          "velocity": 0.6299212598425197
        },
        {
          "duration": 0.23486629583333496,
          "durationTicks": 239,
          "midi": 55,
          "name": "G3",
          "ticks": 60720,
          "time": 59.669797,
          "velocity": 0.6299212598425197
        },
        {
          "duration": 0.23486629583333496,
          "durationTicks": 239,
          "midi": 52,
          "name": "E3",
          "ticks": 60720,
          "time": 59.669797,
          "velocity": 0.6299212598425197
        },
        {
          "duration": 0.23486629583333496,
          "durationTicks": 239,
          "midi": 59,
          "name": "B3",
          "ticks": 61680,
          "time": 60.613193,
          "velocity": 0.6299212598425197
        },
        {
          "duration": 0.23486629583333496,
          "durationTicks": 239,
          "midi": 55,
          "name": "G3",
          "ticks": 61680,
          "time": 60.613193,
          "velocity": 0.6299212598425197
        },
        {
          "duration": 0.23486629583333496,
          "durationTicks": 239,
          "midi": 52,
          "name": "E3",
          "ticks": 61680,
          "time": 60.613193,
          "velocity": 0.6299212598425197
        },
        {
          "duration": 0.23486629583333496,
          "durationTicks": 239,
          "midi": 59,
          "name": "B3",
          "ticks": 62160,
          "time": 61.084891,
          "velocity": 0.6299212598425197
        },
        {
          "duration": 0.23486629583333496,
          "durationTicks": 239,
          "midi": 55,
          "name": "G3",
          "ticks": 62160,
          "time": 61.084891,
          "velocity": 0.6299212598425197
        },
        {
          "duration": 0.23486629583333496,
          "durationTicks": 239,
          "midi": 52,
          "name": "E3",
          "ticks": 62160,
          "time": 61.084891,
          "velocity": 0.6299212598425197
        },
        {
          "duration": 0.23486629583333496,
          "durationTicks": 239,
          "midi": 59,
          "name": "B3",
          "ticks": 62640,
          "time": 61.556589,
          "velocity": 0.6299212598425197
        },
        {
          "duration": 0.23486629583333496,
          "durationTicks": 239,
          "midi": 55,
          "name": "G3",
          "ticks": 62640,
          "time": 61.556589,
          "velocity": 0.6299212598425197
        },
        {
          "duration": 0.23486629583333496,
          "durationTicks": 239,
          "midi": 52,
          "name": "E3",
          "ticks": 62640,
          "time": 61.556589,
          "velocity": 0.6299212598425197
        },
        {
          "duration": 0.23486629583333496,
          "durationTicks": 239,
          "midi": 59,
          "name": "B3",
          "ticks": 63120,
          "time": 62.028287,
          "velocity": 0.6299212598425197
        },
        {
          "duration": 0.23486629583333496,
          "durationTicks": 239,
          "midi": 55,
          "name": "G3",
          "ticks": 63120,
          "time": 62.028287,
          "velocity": 0.6299212598425197
        },
        {
          "duration": 0.23486629583333496,
          "durationTicks": 239,
          "midi": 52,
          "name": "E3",
          "ticks": 63120,
          "time": 62.028287,
          "velocity": 0.6299212598425197
        },
        {
          "duration": 0.23486629583333496,
          "durationTicks": 239,
          "midi": 59,
          "name": "B3",
          "ticks": 63600,
          "time": 62.499985,
          "velocity": 0.6299212598425197
        },
        {
          "duration": 0.23486629583333496,
          "durationTicks": 239,
          "midi": 55,
          "name": "G3",
          "ticks": 63600,
          "time": 62.499985,
          "velocity": 0.6299212598425197
        },
        {
          "duration": 0.23486629583333496,
          "durationTicks": 239,
          "midi": 52,
          "name": "E3",
          "ticks": 63600,
          "time": 62.499985,
          "velocity": 0.6299212598425197
        },
        {
          "duration": 0.4707152958333438,
          "durationTicks": 479,
          "midi": 59,
          "name": "B3",
          "ticks": 65760,
          "time": 64.622626,
          "velocity": 0.6299212598425197
        },
        {
          "duration": 0.4707152958333438,
          "durationTicks": 479,
          "midi": 52,
          "name": "E3",
          "ticks": 65760,
          "time": 64.622626,
          "velocity": 0.6299212598425197
        }
      ],
      "endOfTrackTicks": 66240
    }
  ]
}
